<?xml version="1.0" encoding="utf-8" standalone="no"?>
<!DOCTYPE svg PUBLIC "-//W3C//DTD SVG 1.1//EN"
  "http://www.w3.org/Graphics/SVG/1.1/DTD/svg11.dtd">
<svg xmlns:xlink="http://www.w3.org/1999/xlink" width="460.8pt" height="345.6pt" viewBox="0 0 460.8 345.6" xmlns="http://www.w3.org/2000/svg" version="1.1">
 <metadata>
  <rdf:RDF xmlns:dc="http://purl.org/dc/elements/1.1/" xmlns:cc="http://creativecommons.org/ns#" xmlns:rdf="http://www.w3.org/1999/02/22-rdf-syntax-ns#">
   <cc:Work>
    <dc:type rdf:resource="http://purl.org/dc/dcmitype/StillImage"/>
    <dc:date>2023-06-29T13:08:04.109837</dc:date>
    <dc:format>image/svg+xml</dc:format>
    <dc:creator>
     <cc:Agent>
      <dc:title>Matplotlib v3.7.1, https://matplotlib.org/</dc:title>
     </cc:Agent>
    </dc:creator>
   </cc:Work>
  </rdf:RDF>
 </metadata>
 <defs>
  <style type="text/css">*{stroke-linejoin: round; stroke-linecap: butt}</style>
 </defs>
 <g id="figure_1">
  <g id="patch_1">
   <path d="M 0 345.6 
L 460.8 345.6 
L 460.8 0 
L 0 0 
z
" style="fill: #ffffff"/>
  </g>
  <g id="axes_1">
   <g id="patch_2">
    <path d="M 57.6 307.584 
L 414.72 307.584 
L 414.72 41.472 
L 57.6 41.472 
z
" style="fill: #ffffff"/>
   </g>
   <g id="matplotlib.axis_1">
    <g id="xtick_1">
     <g id="line2d_1">
      <defs>
       <path id="m6372961ca3" d="M 0 0 
L 0 3.5 
" style="stroke: #000000; stroke-width: 0.8"/>
      </defs>
      <g>
       <use xlink:href="#m6372961ca3" x="73.760223" y="307.584" style="stroke: #000000; stroke-width: 0.8"/>
      </g>
     </g>
     <g id="text_1">
      <!-- 0 -->
      <g transform="translate(70.578973 322.182437) scale(0.1 -0.1)">
       <defs>
        <path id="DejaVuSans-30" d="M 2034 4250 
Q 1547 4250 1301 3770 
Q 1056 3291 1056 2328 
Q 1056 1369 1301 889 
Q 1547 409 2034 409 
Q 2525 409 2770 889 
Q 3016 1369 3016 2328 
Q 3016 3291 2770 3770 
Q 2525 4250 2034 4250 
z
M 2034 4750 
Q 2819 4750 3233 4129 
Q 3647 3509 3647 2328 
Q 3647 1150 3233 529 
Q 2819 -91 2034 -91 
Q 1250 -91 836 529 
Q 422 1150 422 2328 
Q 422 3509 836 4129 
Q 1250 4750 2034 4750 
z
" transform="scale(0.015625)"/>
       </defs>
       <use xlink:href="#DejaVuSans-30"/>
      </g>
     </g>
    </g>
    <g id="xtick_2">
     <g id="line2d_2">
      <g>
       <use xlink:href="#m6372961ca3" x="119.07519" y="307.584" style="stroke: #000000; stroke-width: 0.8"/>
      </g>
     </g>
     <g id="text_2">
      <!-- 50 -->
      <g transform="translate(112.71269 322.182437) scale(0.1 -0.1)">
       <defs>
        <path id="DejaVuSans-35" d="M 691 4666 
L 3169 4666 
L 3169 4134 
L 1269 4134 
L 1269 2991 
Q 1406 3038 1543 3061 
Q 1681 3084 1819 3084 
Q 2600 3084 3056 2656 
Q 3513 2228 3513 1497 
Q 3513 744 3044 326 
Q 2575 -91 1722 -91 
Q 1428 -91 1123 -41 
Q 819 9 494 109 
L 494 744 
Q 775 591 1075 516 
Q 1375 441 1709 441 
Q 2250 441 2565 725 
Q 2881 1009 2881 1497 
Q 2881 1984 2565 2268 
Q 2250 2553 1709 2553 
Q 1456 2553 1204 2497 
Q 953 2441 691 2322 
L 691 4666 
z
" transform="scale(0.015625)"/>
       </defs>
       <use xlink:href="#DejaVuSans-35"/>
       <use xlink:href="#DejaVuSans-30" x="63.623047"/>
      </g>
     </g>
    </g>
    <g id="xtick_3">
     <g id="line2d_3">
      <g>
       <use xlink:href="#m6372961ca3" x="164.390156" y="307.584" style="stroke: #000000; stroke-width: 0.8"/>
      </g>
     </g>
     <g id="text_3">
      <!-- 100 -->
      <g transform="translate(154.846406 322.182437) scale(0.1 -0.1)">
       <defs>
        <path id="DejaVuSans-31" d="M 794 531 
L 1825 531 
L 1825 4091 
L 703 3866 
L 703 4441 
L 1819 4666 
L 2450 4666 
L 2450 531 
L 3481 531 
L 3481 0 
L 794 0 
L 794 531 
z
" transform="scale(0.015625)"/>
       </defs>
       <use xlink:href="#DejaVuSans-31"/>
       <use xlink:href="#DejaVuSans-30" x="63.623047"/>
       <use xlink:href="#DejaVuSans-30" x="127.246094"/>
      </g>
     </g>
    </g>
    <g id="xtick_4">
     <g id="line2d_4">
      <g>
       <use xlink:href="#m6372961ca3" x="209.705123" y="307.584" style="stroke: #000000; stroke-width: 0.8"/>
      </g>
     </g>
     <g id="text_4">
      <!-- 150 -->
      <g transform="translate(200.161373 322.182437) scale(0.1 -0.1)">
       <use xlink:href="#DejaVuSans-31"/>
       <use xlink:href="#DejaVuSans-35" x="63.623047"/>
       <use xlink:href="#DejaVuSans-30" x="127.246094"/>
      </g>
     </g>
    </g>
    <g id="xtick_5">
     <g id="line2d_5">
      <g>
       <use xlink:href="#m6372961ca3" x="255.020089" y="307.584" style="stroke: #000000; stroke-width: 0.8"/>
      </g>
     </g>
     <g id="text_5">
      <!-- 200 -->
      <g transform="translate(245.476339 322.182437) scale(0.1 -0.1)">
       <defs>
        <path id="DejaVuSans-32" d="M 1228 531 
L 3431 531 
L 3431 0 
L 469 0 
L 469 531 
Q 828 903 1448 1529 
Q 2069 2156 2228 2338 
Q 2531 2678 2651 2914 
Q 2772 3150 2772 3378 
Q 2772 3750 2511 3984 
Q 2250 4219 1831 4219 
Q 1534 4219 1204 4116 
Q 875 4013 500 3803 
L 500 4441 
Q 881 4594 1212 4672 
Q 1544 4750 1819 4750 
Q 2544 4750 2975 4387 
Q 3406 4025 3406 3419 
Q 3406 3131 3298 2873 
Q 3191 2616 2906 2266 
Q 2828 2175 2409 1742 
Q 1991 1309 1228 531 
z
" transform="scale(0.015625)"/>
       </defs>
       <use xlink:href="#DejaVuSans-32"/>
       <use xlink:href="#DejaVuSans-30" x="63.623047"/>
       <use xlink:href="#DejaVuSans-30" x="127.246094"/>
      </g>
     </g>
    </g>
    <g id="xtick_6">
     <g id="line2d_6">
      <g>
       <use xlink:href="#m6372961ca3" x="300.335055" y="307.584" style="stroke: #000000; stroke-width: 0.8"/>
      </g>
     </g>
     <g id="text_6">
      <!-- 250 -->
      <g transform="translate(290.791305 322.182437) scale(0.1 -0.1)">
       <use xlink:href="#DejaVuSans-32"/>
       <use xlink:href="#DejaVuSans-35" x="63.623047"/>
       <use xlink:href="#DejaVuSans-30" x="127.246094"/>
      </g>
     </g>
    </g>
    <g id="xtick_7">
     <g id="line2d_7">
      <g>
       <use xlink:href="#m6372961ca3" x="345.650022" y="307.584" style="stroke: #000000; stroke-width: 0.8"/>
      </g>
     </g>
     <g id="text_7">
      <!-- 300 -->
      <g transform="translate(336.106272 322.182437) scale(0.1 -0.1)">
       <defs>
        <path id="DejaVuSans-33" d="M 2597 2516 
Q 3050 2419 3304 2112 
Q 3559 1806 3559 1356 
Q 3559 666 3084 287 
Q 2609 -91 1734 -91 
Q 1441 -91 1130 -33 
Q 819 25 488 141 
L 488 750 
Q 750 597 1062 519 
Q 1375 441 1716 441 
Q 2309 441 2620 675 
Q 2931 909 2931 1356 
Q 2931 1769 2642 2001 
Q 2353 2234 1838 2234 
L 1294 2234 
L 1294 2753 
L 1863 2753 
Q 2328 2753 2575 2939 
Q 2822 3125 2822 3475 
Q 2822 3834 2567 4026 
Q 2313 4219 1838 4219 
Q 1578 4219 1281 4162 
Q 984 4106 628 3988 
L 628 4550 
Q 988 4650 1302 4700 
Q 1616 4750 1894 4750 
Q 2613 4750 3031 4423 
Q 3450 4097 3450 3541 
Q 3450 3153 3228 2886 
Q 3006 2619 2597 2516 
z
" transform="scale(0.015625)"/>
       </defs>
       <use xlink:href="#DejaVuSans-33"/>
       <use xlink:href="#DejaVuSans-30" x="63.623047"/>
       <use xlink:href="#DejaVuSans-30" x="127.246094"/>
      </g>
     </g>
    </g>
    <g id="xtick_8">
     <g id="line2d_8">
      <g>
       <use xlink:href="#m6372961ca3" x="390.964988" y="307.584" style="stroke: #000000; stroke-width: 0.8"/>
      </g>
     </g>
     <g id="text_8">
      <!-- 350 -->
      <g transform="translate(381.421238 322.182437) scale(0.1 -0.1)">
       <use xlink:href="#DejaVuSans-33"/>
       <use xlink:href="#DejaVuSans-35" x="63.623047"/>
       <use xlink:href="#DejaVuSans-30" x="127.246094"/>
      </g>
     </g>
    </g>
    <g id="text_9">
     <!-- Timestamp (s) -->
     <g transform="translate(200.157656 335.860562) scale(0.1 -0.1)">
      <defs>
       <path id="DejaVuSans-54" d="M -19 4666 
L 3928 4666 
L 3928 4134 
L 2272 4134 
L 2272 0 
L 1638 0 
L 1638 4134 
L -19 4134 
L -19 4666 
z
" transform="scale(0.015625)"/>
       <path id="DejaVuSans-69" d="M 603 3500 
L 1178 3500 
L 1178 0 
L 603 0 
L 603 3500 
z
M 603 4863 
L 1178 4863 
L 1178 4134 
L 603 4134 
L 603 4863 
z
" transform="scale(0.015625)"/>
       <path id="DejaVuSans-6d" d="M 3328 2828 
Q 3544 3216 3844 3400 
Q 4144 3584 4550 3584 
Q 5097 3584 5394 3201 
Q 5691 2819 5691 2113 
L 5691 0 
L 5113 0 
L 5113 2094 
Q 5113 2597 4934 2840 
Q 4756 3084 4391 3084 
Q 3944 3084 3684 2787 
Q 3425 2491 3425 1978 
L 3425 0 
L 2847 0 
L 2847 2094 
Q 2847 2600 2669 2842 
Q 2491 3084 2119 3084 
Q 1678 3084 1418 2786 
Q 1159 2488 1159 1978 
L 1159 0 
L 581 0 
L 581 3500 
L 1159 3500 
L 1159 2956 
Q 1356 3278 1631 3431 
Q 1906 3584 2284 3584 
Q 2666 3584 2933 3390 
Q 3200 3197 3328 2828 
z
" transform="scale(0.015625)"/>
       <path id="DejaVuSans-65" d="M 3597 1894 
L 3597 1613 
L 953 1613 
Q 991 1019 1311 708 
Q 1631 397 2203 397 
Q 2534 397 2845 478 
Q 3156 559 3463 722 
L 3463 178 
Q 3153 47 2828 -22 
Q 2503 -91 2169 -91 
Q 1331 -91 842 396 
Q 353 884 353 1716 
Q 353 2575 817 3079 
Q 1281 3584 2069 3584 
Q 2775 3584 3186 3129 
Q 3597 2675 3597 1894 
z
M 3022 2063 
Q 3016 2534 2758 2815 
Q 2500 3097 2075 3097 
Q 1594 3097 1305 2825 
Q 1016 2553 972 2059 
L 3022 2063 
z
" transform="scale(0.015625)"/>
       <path id="DejaVuSans-73" d="M 2834 3397 
L 2834 2853 
Q 2591 2978 2328 3040 
Q 2066 3103 1784 3103 
Q 1356 3103 1142 2972 
Q 928 2841 928 2578 
Q 928 2378 1081 2264 
Q 1234 2150 1697 2047 
L 1894 2003 
Q 2506 1872 2764 1633 
Q 3022 1394 3022 966 
Q 3022 478 2636 193 
Q 2250 -91 1575 -91 
Q 1294 -91 989 -36 
Q 684 19 347 128 
L 347 722 
Q 666 556 975 473 
Q 1284 391 1588 391 
Q 1994 391 2212 530 
Q 2431 669 2431 922 
Q 2431 1156 2273 1281 
Q 2116 1406 1581 1522 
L 1381 1569 
Q 847 1681 609 1914 
Q 372 2147 372 2553 
Q 372 3047 722 3315 
Q 1072 3584 1716 3584 
Q 2034 3584 2315 3537 
Q 2597 3491 2834 3397 
z
" transform="scale(0.015625)"/>
       <path id="DejaVuSans-74" d="M 1172 4494 
L 1172 3500 
L 2356 3500 
L 2356 3053 
L 1172 3053 
L 1172 1153 
Q 1172 725 1289 603 
Q 1406 481 1766 481 
L 2356 481 
L 2356 0 
L 1766 0 
Q 1100 0 847 248 
Q 594 497 594 1153 
L 594 3053 
L 172 3053 
L 172 3500 
L 594 3500 
L 594 4494 
L 1172 4494 
z
" transform="scale(0.015625)"/>
       <path id="DejaVuSans-61" d="M 2194 1759 
Q 1497 1759 1228 1600 
Q 959 1441 959 1056 
Q 959 750 1161 570 
Q 1363 391 1709 391 
Q 2188 391 2477 730 
Q 2766 1069 2766 1631 
L 2766 1759 
L 2194 1759 
z
M 3341 1997 
L 3341 0 
L 2766 0 
L 2766 531 
Q 2569 213 2275 61 
Q 1981 -91 1556 -91 
Q 1019 -91 701 211 
Q 384 513 384 1019 
Q 384 1609 779 1909 
Q 1175 2209 1959 2209 
L 2766 2209 
L 2766 2266 
Q 2766 2663 2505 2880 
Q 2244 3097 1772 3097 
Q 1472 3097 1187 3025 
Q 903 2953 641 2809 
L 641 3341 
Q 956 3463 1253 3523 
Q 1550 3584 1831 3584 
Q 2591 3584 2966 3190 
Q 3341 2797 3341 1997 
z
" transform="scale(0.015625)"/>
       <path id="DejaVuSans-70" d="M 1159 525 
L 1159 -1331 
L 581 -1331 
L 581 3500 
L 1159 3500 
L 1159 2969 
Q 1341 3281 1617 3432 
Q 1894 3584 2278 3584 
Q 2916 3584 3314 3078 
Q 3713 2572 3713 1747 
Q 3713 922 3314 415 
Q 2916 -91 2278 -91 
Q 1894 -91 1617 61 
Q 1341 213 1159 525 
z
M 3116 1747 
Q 3116 2381 2855 2742 
Q 2594 3103 2138 3103 
Q 1681 3103 1420 2742 
Q 1159 2381 1159 1747 
Q 1159 1113 1420 752 
Q 1681 391 2138 391 
Q 2594 391 2855 752 
Q 3116 1113 3116 1747 
z
" transform="scale(0.015625)"/>
       <path id="DejaVuSans-20" transform="scale(0.015625)"/>
       <path id="DejaVuSans-28" d="M 1984 4856 
Q 1566 4138 1362 3434 
Q 1159 2731 1159 2009 
Q 1159 1288 1364 580 
Q 1569 -128 1984 -844 
L 1484 -844 
Q 1016 -109 783 600 
Q 550 1309 550 2009 
Q 550 2706 781 3412 
Q 1013 4119 1484 4856 
L 1984 4856 
z
" transform="scale(0.015625)"/>
       <path id="DejaVuSans-29" d="M 513 4856 
L 1013 4856 
Q 1481 4119 1714 3412 
Q 1947 2706 1947 2009 
Q 1947 1309 1714 600 
Q 1481 -109 1013 -844 
L 513 -844 
Q 928 -128 1133 580 
Q 1338 1288 1338 2009 
Q 1338 2731 1133 3434 
Q 928 4138 513 4856 
z
" transform="scale(0.015625)"/>
      </defs>
      <use xlink:href="#DejaVuSans-54"/>
      <use xlink:href="#DejaVuSans-69" x="57.958984"/>
      <use xlink:href="#DejaVuSans-6d" x="85.742188"/>
      <use xlink:href="#DejaVuSans-65" x="183.154297"/>
      <use xlink:href="#DejaVuSans-73" x="244.677734"/>
      <use xlink:href="#DejaVuSans-74" x="296.777344"/>
      <use xlink:href="#DejaVuSans-61" x="335.986328"/>
      <use xlink:href="#DejaVuSans-6d" x="397.265625"/>
      <use xlink:href="#DejaVuSans-70" x="494.677734"/>
      <use xlink:href="#DejaVuSans-20" x="558.154297"/>
      <use xlink:href="#DejaVuSans-28" x="589.941406"/>
      <use xlink:href="#DejaVuSans-73" x="628.955078"/>
      <use xlink:href="#DejaVuSans-29" x="681.054688"/>
     </g>
    </g>
   </g>
   <g id="matplotlib.axis_2">
    <g id="ytick_1">
     <g id="line2d_9">
      <defs>
       <path id="m7a0aa8394e" d="M 0 0 
L -3.5 0 
" style="stroke: #000000; stroke-width: 0.8"/>
      </defs>
      <g>
       <use xlink:href="#m7a0aa8394e" x="57.6" y="297.555692" style="stroke: #000000; stroke-width: 0.8"/>
      </g>
     </g>
     <g id="text_10">
      <!-- 0 -->
      <g transform="translate(44.2375 301.354911) scale(0.1 -0.1)">
       <use xlink:href="#DejaVuSans-30"/>
      </g>
     </g>
    </g>
    <g id="ytick_2">
     <g id="line2d_10">
      <g>
       <use xlink:href="#m7a0aa8394e" x="57.6" y="245.863385" style="stroke: #000000; stroke-width: 0.8"/>
      </g>
     </g>
     <g id="text_11">
      <!-- 100 -->
      <g transform="translate(31.5125 249.662603) scale(0.1 -0.1)">
       <use xlink:href="#DejaVuSans-31"/>
       <use xlink:href="#DejaVuSans-30" x="63.623047"/>
       <use xlink:href="#DejaVuSans-30" x="127.246094"/>
      </g>
     </g>
    </g>
    <g id="ytick_3">
     <g id="line2d_11">
      <g>
       <use xlink:href="#m7a0aa8394e" x="57.6" y="194.171077" style="stroke: #000000; stroke-width: 0.8"/>
      </g>
     </g>
     <g id="text_12">
      <!-- 200 -->
      <g transform="translate(31.5125 197.970296) scale(0.1 -0.1)">
       <use xlink:href="#DejaVuSans-32"/>
       <use xlink:href="#DejaVuSans-30" x="63.623047"/>
       <use xlink:href="#DejaVuSans-30" x="127.246094"/>
      </g>
     </g>
    </g>
    <g id="ytick_4">
     <g id="line2d_12">
      <g>
       <use xlink:href="#m7a0aa8394e" x="57.6" y="142.478769" style="stroke: #000000; stroke-width: 0.8"/>
      </g>
     </g>
     <g id="text_13">
      <!-- 300 -->
      <g transform="translate(31.5125 146.277988) scale(0.1 -0.1)">
       <use xlink:href="#DejaVuSans-33"/>
       <use xlink:href="#DejaVuSans-30" x="63.623047"/>
       <use xlink:href="#DejaVuSans-30" x="127.246094"/>
      </g>
     </g>
    </g>
    <g id="ytick_5">
     <g id="line2d_13">
      <g>
       <use xlink:href="#m7a0aa8394e" x="57.6" y="90.786462" style="stroke: #000000; stroke-width: 0.8"/>
      </g>
     </g>
     <g id="text_14">
      <!-- 400 -->
      <g transform="translate(31.5125 94.58568) scale(0.1 -0.1)">
       <defs>
        <path id="DejaVuSans-34" d="M 2419 4116 
L 825 1625 
L 2419 1625 
L 2419 4116 
z
M 2253 4666 
L 3047 4666 
L 3047 1625 
L 3713 1625 
L 3713 1100 
L 3047 1100 
L 3047 0 
L 2419 0 
L 2419 1100 
L 313 1100 
L 313 1709 
L 2253 4666 
z
" transform="scale(0.015625)"/>
       </defs>
       <use xlink:href="#DejaVuSans-34"/>
       <use xlink:href="#DejaVuSans-30" x="63.623047"/>
       <use xlink:href="#DejaVuSans-30" x="127.246094"/>
      </g>
     </g>
    </g>
    <g id="text_15">
     <!-- Congestion window (MSS) -->
     <g transform="translate(25.432812 239.392063) rotate(-90) scale(0.1 -0.1)">
      <defs>
       <path id="DejaVuSans-43" d="M 4122 4306 
L 4122 3641 
Q 3803 3938 3442 4084 
Q 3081 4231 2675 4231 
Q 1875 4231 1450 3742 
Q 1025 3253 1025 2328 
Q 1025 1406 1450 917 
Q 1875 428 2675 428 
Q 3081 428 3442 575 
Q 3803 722 4122 1019 
L 4122 359 
Q 3791 134 3420 21 
Q 3050 -91 2638 -91 
Q 1578 -91 968 557 
Q 359 1206 359 2328 
Q 359 3453 968 4101 
Q 1578 4750 2638 4750 
Q 3056 4750 3426 4639 
Q 3797 4528 4122 4306 
z
" transform="scale(0.015625)"/>
       <path id="DejaVuSans-6f" d="M 1959 3097 
Q 1497 3097 1228 2736 
Q 959 2375 959 1747 
Q 959 1119 1226 758 
Q 1494 397 1959 397 
Q 2419 397 2687 759 
Q 2956 1122 2956 1747 
Q 2956 2369 2687 2733 
Q 2419 3097 1959 3097 
z
M 1959 3584 
Q 2709 3584 3137 3096 
Q 3566 2609 3566 1747 
Q 3566 888 3137 398 
Q 2709 -91 1959 -91 
Q 1206 -91 779 398 
Q 353 888 353 1747 
Q 353 2609 779 3096 
Q 1206 3584 1959 3584 
z
" transform="scale(0.015625)"/>
       <path id="DejaVuSans-6e" d="M 3513 2113 
L 3513 0 
L 2938 0 
L 2938 2094 
Q 2938 2591 2744 2837 
Q 2550 3084 2163 3084 
Q 1697 3084 1428 2787 
Q 1159 2491 1159 1978 
L 1159 0 
L 581 0 
L 581 3500 
L 1159 3500 
L 1159 2956 
Q 1366 3272 1645 3428 
Q 1925 3584 2291 3584 
Q 2894 3584 3203 3211 
Q 3513 2838 3513 2113 
z
" transform="scale(0.015625)"/>
       <path id="DejaVuSans-67" d="M 2906 1791 
Q 2906 2416 2648 2759 
Q 2391 3103 1925 3103 
Q 1463 3103 1205 2759 
Q 947 2416 947 1791 
Q 947 1169 1205 825 
Q 1463 481 1925 481 
Q 2391 481 2648 825 
Q 2906 1169 2906 1791 
z
M 3481 434 
Q 3481 -459 3084 -895 
Q 2688 -1331 1869 -1331 
Q 1566 -1331 1297 -1286 
Q 1028 -1241 775 -1147 
L 775 -588 
Q 1028 -725 1275 -790 
Q 1522 -856 1778 -856 
Q 2344 -856 2625 -561 
Q 2906 -266 2906 331 
L 2906 616 
Q 2728 306 2450 153 
Q 2172 0 1784 0 
Q 1141 0 747 490 
Q 353 981 353 1791 
Q 353 2603 747 3093 
Q 1141 3584 1784 3584 
Q 2172 3584 2450 3431 
Q 2728 3278 2906 2969 
L 2906 3500 
L 3481 3500 
L 3481 434 
z
" transform="scale(0.015625)"/>
       <path id="DejaVuSans-77" d="M 269 3500 
L 844 3500 
L 1563 769 
L 2278 3500 
L 2956 3500 
L 3675 769 
L 4391 3500 
L 4966 3500 
L 4050 0 
L 3372 0 
L 2619 2869 
L 1863 0 
L 1184 0 
L 269 3500 
z
" transform="scale(0.015625)"/>
       <path id="DejaVuSans-64" d="M 2906 2969 
L 2906 4863 
L 3481 4863 
L 3481 0 
L 2906 0 
L 2906 525 
Q 2725 213 2448 61 
Q 2172 -91 1784 -91 
Q 1150 -91 751 415 
Q 353 922 353 1747 
Q 353 2572 751 3078 
Q 1150 3584 1784 3584 
Q 2172 3584 2448 3432 
Q 2725 3281 2906 2969 
z
M 947 1747 
Q 947 1113 1208 752 
Q 1469 391 1925 391 
Q 2381 391 2643 752 
Q 2906 1113 2906 1747 
Q 2906 2381 2643 2742 
Q 2381 3103 1925 3103 
Q 1469 3103 1208 2742 
Q 947 2381 947 1747 
z
" transform="scale(0.015625)"/>
       <path id="DejaVuSans-4d" d="M 628 4666 
L 1569 4666 
L 2759 1491 
L 3956 4666 
L 4897 4666 
L 4897 0 
L 4281 0 
L 4281 4097 
L 3078 897 
L 2444 897 
L 1241 4097 
L 1241 0 
L 628 0 
L 628 4666 
z
" transform="scale(0.015625)"/>
       <path id="DejaVuSans-53" d="M 3425 4513 
L 3425 3897 
Q 3066 4069 2747 4153 
Q 2428 4238 2131 4238 
Q 1616 4238 1336 4038 
Q 1056 3838 1056 3469 
Q 1056 3159 1242 3001 
Q 1428 2844 1947 2747 
L 2328 2669 
Q 3034 2534 3370 2195 
Q 3706 1856 3706 1288 
Q 3706 609 3251 259 
Q 2797 -91 1919 -91 
Q 1588 -91 1214 -16 
Q 841 59 441 206 
L 441 856 
Q 825 641 1194 531 
Q 1563 422 1919 422 
Q 2459 422 2753 634 
Q 3047 847 3047 1241 
Q 3047 1584 2836 1778 
Q 2625 1972 2144 2069 
L 1759 2144 
Q 1053 2284 737 2584 
Q 422 2884 422 3419 
Q 422 4038 858 4394 
Q 1294 4750 2059 4750 
Q 2388 4750 2728 4690 
Q 3069 4631 3425 4513 
z
" transform="scale(0.015625)"/>
      </defs>
      <use xlink:href="#DejaVuSans-43"/>
      <use xlink:href="#DejaVuSans-6f" x="69.824219"/>
      <use xlink:href="#DejaVuSans-6e" x="131.005859"/>
      <use xlink:href="#DejaVuSans-67" x="194.384766"/>
      <use xlink:href="#DejaVuSans-65" x="257.861328"/>
      <use xlink:href="#DejaVuSans-73" x="319.384766"/>
      <use xlink:href="#DejaVuSans-74" x="371.484375"/>
      <use xlink:href="#DejaVuSans-69" x="410.693359"/>
      <use xlink:href="#DejaVuSans-6f" x="438.476562"/>
      <use xlink:href="#DejaVuSans-6e" x="499.658203"/>
      <use xlink:href="#DejaVuSans-20" x="563.037109"/>
      <use xlink:href="#DejaVuSans-77" x="594.824219"/>
      <use xlink:href="#DejaVuSans-69" x="676.611328"/>
      <use xlink:href="#DejaVuSans-6e" x="704.394531"/>
      <use xlink:href="#DejaVuSans-64" x="767.773438"/>
      <use xlink:href="#DejaVuSans-6f" x="831.25"/>
      <use xlink:href="#DejaVuSans-77" x="892.431641"/>
      <use xlink:href="#DejaVuSans-20" x="974.21875"/>
      <use xlink:href="#DejaVuSans-28" x="1006.005859"/>
      <use xlink:href="#DejaVuSans-4d" x="1045.019531"/>
      <use xlink:href="#DejaVuSans-53" x="1131.298828"/>
      <use xlink:href="#DejaVuSans-53" x="1194.775391"/>
      <use xlink:href="#DejaVuSans-29" x="1258.251953"/>
     </g>
    </g>
   </g>
   <g id="line2d_14">
    <path d="M 73.832727 71.143385 
L 74.104617 71.143385 
L 74.467137 69.075692 
L 74.612145 69.075692 
L 74.811531 73.211077 
L 75.08342 74.244923 
L 75.699704 74.244923 
L 76.261609 77.346462 
L 76.569751 74.244923 
L 76.642255 78.380308 
L 77.204161 77.346462 
L 77.602932 76.312615 
L 78.074208 76.312615 
L 78.581736 77.346462 
L 78.65424 75.278769 
L 79.288649 72.177231 
L 79.596791 72.177231 
L 80.104319 70.109538 
L 80.249327 70.109538 
L 80.793106 72.177231 
L 82.297563 73.211077 
L 83.240114 71.143385 
L 83.294492 71.143385 
L 84.345799 70.109538 
L 85.233973 70.109538 
L 85.632745 68.041846 
L 85.83213 72.177231 
L 85.886508 76.312615 
L 86.303406 74.244923 
L 86.992194 76.312615 
L 87.155327 77.346462 
L 87.427217 77.346462 
L 87.499721 74.244923 
L 88.152257 77.346462 
L 88.297265 77.346462 
L 88.387894 75.278769 
L 89.239816 75.278769 
L 90.001107 73.211077 
L 90.961785 70.109538 
L 91.143044 70.109538 
L 91.197422 67.008 
L 91.414934 67.008 
L 91.505564 71.143385 
L 91.632446 71.143385 
L 91.741202 70.109538 
L 92.593123 70.109538 
L 93.245659 69.075692 
L 93.281911 73.211077 
L 94.568856 73.211077 
L 94.967628 70.109538 
L 95.167013 70.109538 
L 95.801423 71.143385 
L 96.653344 71.143385 
L 97.052116 72.177231 
L 97.178998 75.278769 
L 97.541518 73.211077 
L 98.592825 73.211077 
L 98.737833 70.109538 
L 100.622935 70.109538 
L 101.039833 73.211077 
L 102.2724 73.211077 
L 103.142448 74.244923 
L 103.994369 76.312615 
L 105.426322 74.244923 
L 106.731393 75.278769 
L 107.075787 77.346462 
L 107.347676 75.278769 
L 109.269031 75.278769 
L 109.577173 73.211077 
L 109.885315 77.346462 
L 110.374716 73.211077 
L 110.972874 73.211077 
L 112.205441 74.244923 
L 112.241693 75.278769 
L 112.404827 71.143385 
L 112.459205 73.211077 
L 112.622339 71.143385 
L 112.966732 71.143385 
L 113.47426 73.211077 
L 113.601142 71.143385 
L 114.235551 71.143385 
L 114.779331 73.211077 
L 114.797457 70.109538 
L 115.069347 67.008 
L 115.196229 295.488 
L 116.011898 295.488 
L 116.102528 62.872615 
L 116.446922 69.075692 
L 117.679489 69.075692 
L 117.897001 65.974154 
L 118.005757 65.974154 
L 118.404528 62.872615 
L 118.8033 65.974154 
L 119.147694 65.974154 
L 119.727725 64.940308 
L 120.162749 67.008 
L 120.470891 67.008 
L 121.28656 69.075692 
L 121.413442 67.008 
L 121.431568 67.008 
L 122.065978 70.109538 
L 122.174733 70.109538 
L 122.537253 65.974154 
L 123.099159 62.872615 
L 123.389175 67.008 
L 123.534182 65.974154 
L 124.821127 65.974154 
L 125.292403 70.109538 
L 125.310529 68.041846 
L 126.126199 68.041846 
L 126.543096 64.940308 
L 126.651852 64.940308 
L 126.669978 69.075692 
L 126.88749 69.075692 
L 127.014372 68.041846 
L 127.793789 68.041846 
L 128.101931 64.940308 
L 128.319443 69.075692 
L 129.026356 69.075692 
L 129.91453 73.211077 
L 130.168294 70.109538 
L 130.313301 70.109538 
L 130.440183 71.143385 
L 130.784577 64.940308 
L 131.382735 62.872615 
L 131.85401 63.906462 
L 132.887192 63.906462 
L 133.140955 60.804923 
L 133.702861 63.906462 
L 134.174137 64.940308 
L 134.772294 64.940308 
L 134.935428 69.075692 
L 135.171066 68.041846 
L 135.678593 68.041846 
L 136.167995 70.109538 
L 136.313003 68.041846 
L 136.929287 70.109538 
L 137.27368 72.177231 
L 137.781208 72.177231 
L 138.016846 71.143385 
L 138.034972 69.075692 
L 138.198106 71.143385 
L 138.760011 74.244923 
L 139.829444 74.244923 
L 140.645114 75.278769 
L 141.605791 75.278769 
L 141.805177 73.211077 
L 142.78398 76.312615 
L 143.472768 76.312615 
L 144.089051 70.109538 
L 144.959099 70.109538 
L 145.212862 68.041846 
L 145.339744 68.041846 
L 145.557256 72.177231 
L 145.974154 70.109538 
L 146.735445 70.109538 
L 147.134217 68.041846 
L 147.261099 72.177231 
L 147.768626 70.109538 
L 148.38491 70.109538 
L 148.693052 73.211077 
L 149.164327 75.278769 
L 149.490595 73.211077 
L 150.650658 57.703385 
L 150.86817 61.838769 
L 150.940674 58.737231 
L 151.883225 58.737231 
L 151.901351 61.838769 
L 152.245745 58.737231 
L 152.481383 62.872615 
L 152.608265 62.872615 
L 152.934533 61.838769 
L 153.297052 62.872615 
L 153.387682 64.940308 
L 153.587068 64.940308 
L 154.420864 72.177231 
L 154.565871 71.143385 
L 155.000895 71.143385 
L 155.617179 72.177231 
L 156.01595 69.075692 
L 156.034076 69.075692 
L 156.541604 72.177231 
L 156.958502 72.177231 
L 157.556659 70.109538 
L 158.245447 69.075692 
L 159.187998 69.075692 
L 159.40551 67.008 
L 159.786156 71.143385 
L 161.036849 67.008 
L 161.290612 69.075692 
L 161.780014 68.041846 
L 161.906896 68.041846 
L 161.9794 63.906462 
L 162.323794 63.906462 
L 162.740691 60.804923 
L 162.813195 64.940308 
L 162.976329 64.940308 
L 163.266345 63.906462 
L 164.2814 63.906462 
L 164.607668 68.041846 
L 164.770802 65.974154 
L 164.879558 65.974154 
L 165.894613 64.940308 
L 166.275259 69.075692 
L 166.420267 67.008 
L 166.782786 67.008 
L 167.525952 68.041846 
L 167.67096 68.041846 
L 168.051605 71.143385 
L 168.559133 70.109538 
L 169.247921 70.109538 
L 169.628566 68.041846 
L 169.88233 69.075692 
L 170.281102 67.008 
L 170.480488 67.008 
L 170.752377 69.075692 
L 171.078645 69.075692 
L 171.441165 67.008 
L 171.912441 70.109538 
L 172.601228 64.940308 
L 172.90937 64.940308 
L 173.145008 61.838769 
L 173.217512 61.838769 
L 173.580031 62.872615 
L 174.395701 62.872615 
L 174.812598 61.838769 
L 174.93948 65.974154 
L 175.990788 67.008 
L 176.117669 67.008 
L 176.371433 64.940308 
L 177.042095 67.008 
L 177.477118 67.008 
L 177.912142 68.041846 
L 178.039024 67.008 
L 178.32904 295.488 
L 179.507229 295.488 
L 179.760993 68.041846 
L 181.229198 68.041846 
L 181.410458 63.906462 
L 181.809229 67.008 
L 182.969292 67.008 
L 183.349938 64.940308 
L 183.730584 67.008 
L 183.875592 68.041846 
L 184.745639 68.041846 
L 185.343797 61.838769 
L 186.630742 61.838769 
L 186.757624 58.737231 
L 186.902631 62.872615 
L 188.026443 61.838769 
L 188.878364 64.940308 
L 189.295262 64.940308 
L 189.331514 69.075692 
L 189.712159 64.940308 
L 189.893419 64.940308 
L 190.237813 62.872615 
L 191.307246 62.872615 
L 191.56101 63.906462 
L 191.760396 61.838769 
L 192.10479 65.974154 
L 192.19542 63.906462 
L 192.775451 67.008 
L 193.246727 67.008 
L 194.189278 69.075692 
L 194.207404 68.041846 
L 194.932444 68.041846 
L 195.294963 65.974154 
L 195.367467 70.109538 
L 195.911247 70.109538 
L 196.146885 71.143385 
L 196.654412 71.143385 
L 197.053184 59.771077 
L 197.216318 59.771077 
L 197.361326 57.703385 
L 198.829531 53.568 
L 199.971468 59.771077 
L 200.352114 59.771077 
L 200.914019 57.703385 
L 201.494051 57.703385 
L 202.12846 55.635692 
L 202.30972 55.635692 
L 202.998508 63.906462 
L 203.270397 63.906462 
L 203.361027 62.872615 
L 203.741673 62.872615 
L 204.267327 64.940308 
L 204.774854 62.872615 
L 205.137374 62.872615 
L 206.007421 71.143385 
L 206.261185 70.109538 
L 206.732461 71.143385 
L 207.439374 71.143385 
L 207.82002 68.041846 
L 209.034461 67.008 
L 209.215721 67.008 
L 209.415107 63.906462 
L 210.12202 67.008 
L 210.738304 67.008 
L 211.137076 69.075692 
L 211.282083 67.008 
L 211.590225 69.075692 
L 212.496525 68.041846 
L 212.985926 65.974154 
L 213.185312 73.211077 
L 213.946603 70.109538 
L 214.091611 70.109538 
L 214.363501 67.008 
L 214.381627 67.008 
L 215.016037 69.075692 
L 215.45106 69.075692 
L 215.831706 65.974154 
L 216.592997 68.041846 
L 216.719879 68.041846 
L 217.136777 64.940308 
L 217.299911 69.075692 
L 217.535549 68.041846 
L 218.043076 68.041846 
L 218.097454 70.109538 
L 218.333092 70.109538 
L 218.713738 67.008 
L 218.822494 71.143385 
L 219.620037 72.177231 
L 219.910053 65.974154 
L 221.795156 65.974154 
L 221.994541 63.906462 
L 222.048919 68.041846 
L 222.647077 69.075692 
L 223.045849 68.041846 
L 223.208983 68.041846 
L 223.62588 69.075692 
L 223.680258 68.041846 
L 223.825266 295.488 
L 225.148463 295.488 
L 225.220967 68.041846 
L 225.710369 72.177231 
L 225.964133 72.177231 
L 226.091014 70.109538 
L 226.38103 73.211077 
L 226.526038 70.109538 
L 226.689172 70.109538 
L 227.160448 69.075692 
L 227.359834 69.075692 
L 229.67996 70.109538 
L 230.151235 70.109538 
L 231.111913 69.075692 
L 231.130039 73.211077 
L 231.43818 64.940308 
L 231.61944 64.940308 
L 234.592102 68.041846 
L 235.697787 68.041846 
L 235.951551 65.974154 
L 236.114685 72.177231 
L 236.132811 72.177231 
L 236.205315 70.109538 
L 236.549709 70.109538 
L 236.839724 71.143385 
L 237.020984 71.143385 
L 237.22037 69.075692 
L 237.76415 73.211077 
L 237.85478 75.278769 
L 238.362307 73.211077 
L 238.471063 75.278769 
L 238.724827 74.244923 
L 238.779205 74.244923 
L 238.851709 71.143385 
L 240.138654 64.940308 
L 241.044953 64.940308 
L 241.371221 67.008 
L 241.715615 64.940308 
L 242.54941 64.940308 
L 242.64004 62.872615 
L 242.8213 67.008 
L 243.18382 64.940308 
L 243.292576 67.008 
L 243.800103 67.008 
L 244.162623 63.906462 
L 244.561395 68.041846 
L 244.797033 68.041846 
L 245.1233 69.075692 
L 245.449568 67.008 
L 245.84834 71.143385 
L 245.957096 63.906462 
L 246.627757 54.601846 
L 246.754639 58.737231 
L 246.863395 57.703385 
L 247.244041 57.703385 
L 247.334671 58.737231 
L 247.932828 56.669538 
L 248.15034 60.804923 
L 248.295348 58.737231 
L 248.60349 63.906462 
L 249.455411 63.906462 
L 249.890435 65.974154 
L 250.107947 63.906462 
L 250.379836 63.906462 
L 251.050498 69.075692 
L 251.485522 67.008 
L 251.811789 70.109538 
L 251.866167 68.041846 
L 252.446199 68.041846 
L 252.971853 65.974154 
L 253.370624 69.075692 
L 253.624388 69.075692 
L 254.258798 71.143385 
L 254.766325 65.974154 
L 254.983837 70.109538 
L 255.799506 70.109538 
L 256.379538 71.143385 
L 256.488294 69.075692 
L 257.992751 72.177231 
L 258.500278 74.244923 
L 259.025932 72.177231 
L 259.297822 72.177231 
L 259.62409 73.211077 
L 260.222247 72.177231 
L 260.349129 71.143385 
L 260.584767 71.143385 
L 260.784153 72.177231 
L 261.001665 72.177231 
L 261.019791 71.143385 
L 261.56357 69.075692 
L 262.46987 70.109538 
L 263.049901 68.041846 
L 263.194909 72.177231 
L 263.539303 71.143385 
L 263.629933 71.143385 
L 264.028704 72.177231 
L 265.243145 71.143385 
L 265.533161 70.109538 
L 265.968185 59.771077 
L 266.240075 56.669538 
L 266.385083 60.804923 
L 267.1645 59.771077 
L 267.490768 59.771077 
L 267.889539 70.109538 
L 267.980169 69.075692 
L 269.303366 67.008 
L 269.520878 71.143385 
L 270.082784 73.211077 
L 271.115965 73.211077 
L 271.315351 71.143385 
L 272.457288 71.143385 
L 272.620422 68.041846 
L 272.76543 72.177231 
L 273.291083 72.177231 
L 274.143005 71.143385 
L 274.650532 72.177231 
L 274.686784 71.143385 
L 275.647462 71.143385 
L 276.626265 73.211077 
L 276.988785 69.075692 
L 277.441934 69.075692 
L 278.692627 70.109538 
L 279.163903 70.109538 
L 279.689557 68.041846 
L 280.03395 72.177231 
L 280.650234 72.177231 
L 280.958376 58.737231 
L 281.157762 59.771077 
L 281.846549 59.771077 
L 282.662219 60.804923 
L 282.988486 65.974154 
L 284.529195 69.075692 
L 285.199857 69.075692 
L 285.798014 67.008 
L 286.396172 60.804923 
L 286.468676 60.804923 
L 287.103085 62.872615 
L 287.229967 60.804923 
L 287.719369 64.940308 
L 288.154392 64.940308 
L 288.535038 67.008 
L 288.825054 64.940308 
L 289.550093 67.008 
L 289.604471 63.906462 
L 289.930739 68.041846 
L 290.111999 67.008 
L 290.673905 68.041846 
L 290.837038 68.041846 
L 290.96392 65.974154 
L 291.14518 71.143385 
L 291.380818 69.075692 
L 291.978976 69.075692 
L 292.178361 65.974154 
L 292.450251 70.109538 
L 292.504629 69.075692 
L 292.994031 69.075692 
L 293.555936 70.109538 
L 294.08159 73.211077 
L 294.607244 73.211077 
L 295.350409 74.244923 
L 296.256708 73.211077 
L 296.456094 73.211077 
L 296.65548 70.109538 
L 296.92737 74.244923 
L 297.28989 62.872615 
L 297.743039 62.872615 
L 297.924299 60.804923 
L 298.014929 64.940308 
L 298.232441 62.872615 
L 298.431827 63.906462 
L 299.283748 63.906462 
L 299.32 61.838769 
L 299.628142 61.838769 
L 300.2263 60.804923 
L 300.280677 60.804923 
L 300.697575 62.872615 
L 301.096347 62.872615 
L 302.183906 60.804923 
L 302.727686 60.804923 
L 303.380221 63.906462 
L 303.887749 63.906462 
L 304.504032 68.041846 
L 305.174694 70.109538 
L 306.135371 70.109538 
L 306.534143 68.041846 
L 307.04167 70.109538 
L 307.821088 70.109538 
L 309.905576 65.974154 
L 309.923702 65.974154 
L 309.959954 70.109538 
L 310.213718 69.075692 
L 310.539986 69.075692 
L 310.830002 71.143385 
L 311.355655 69.075692 
L 312.370711 71.143385 
L 312.805734 71.143385 
L 312.968868 73.211077 
L 314.002049 71.143385 
L 314.147057 68.041846 
L 314.328317 68.041846 
L 315.089609 69.075692 
L 315.869026 68.041846 
L 316.086538 68.041846 
L 316.720947 71.143385 
L 316.938459 70.109538 
L 317.101593 70.109538 
L 317.482239 73.211077 
L 317.554743 73.211077 
L 318.1529 71.143385 
L 319.457971 73.211077 
L 319.711735 73.211077 
L 319.874869 68.041846 
L 320.019877 72.177231 
L 320.454901 68.041846 
L 321.161814 68.041846 
L 321.306822 65.974154 
L 321.560586 72.177231 
L 322.485011 71.143385 
L 322.648145 72.177231 
L 323.046917 70.109538 
L 323.246302 74.244923 
L 323.409436 72.177231 
L 323.445688 72.177231 
L 323.953216 71.143385 
L 324.932019 62.872615 
L 324.986397 63.906462 
L 325.729563 63.906462 
L 325.856445 67.008 
L 326.05583 64.940308 
L 326.32772 68.041846 
L 326.472728 68.041846 
L 326.653988 67.008 
L 326.78087 67.008 
L 327.397153 68.041846 
L 327.940933 65.974154 
L 328.085941 75.278769 
L 328.430335 71.143385 
L 329.246004 71.143385 
L 329.608524 68.041846 
L 329.71728 72.177231 
L 329.89854 71.143385 
L 330.804839 71.143385 
L 331.529878 69.075692 
L 332.508682 69.075692 
L 333.070587 71.143385 
L 334.50254 70.109538 
L 334.701926 295.488 
L 335.825737 295.488 
L 336.369517 72.177231 
L 336.695785 73.211077 
L 336.840792 70.109538 
L 337.71084 70.109538 
L 337.98273 72.177231 
L 338.236493 69.075692 
L 339.070289 71.143385 
L 339.197171 72.177231 
L 339.305927 72.177231 
L 339.46906 71.143385 
L 339.74095 71.143385 
L 340.139722 73.211077 
L 340.302856 70.109538 
L 340.701628 71.143385 
L 341.499171 71.143385 
L 341.607927 68.041846 
L 341.825439 72.177231 
L 342.731738 74.244923 
L 343.257392 70.109538 
L 343.348022 70.109538 
L 343.493029 68.041846 
L 343.837423 72.177231 
L 343.855549 70.109538 
L 344.290573 68.041846 
L 344.798101 61.838769 
L 344.924982 61.838769 
L 345.305628 59.771077 
L 345.650022 63.906462 
L 345.668148 61.838769 
L 346.429439 62.872615 
L 346.465691 62.872615 
L 347.172605 59.771077 
L 347.91577 63.906462 
L 347.933896 63.906462 
L 348.151408 65.974154 
L 348.36892 65.974154 
L 348.803944 64.940308 
L 349.166463 69.075692 
L 349.383975 68.041846 
L 349.619613 72.177231 
L 350.39903 72.177231 
L 351.069692 67.008 
L 351.975991 68.041846 
L 352.229755 68.041846 
L 352.447267 64.940308 
L 352.465393 64.940308 
L 352.664779 69.075692 
L 353.009172 69.075692 
L 353.987976 67.008 
L 354.024228 69.075692 
L 354.749267 71.143385 
L 355.075535 71.143385 
L 355.546811 72.177231 
L 355.854952 65.974154 
L 356.434984 69.075692 
L 356.996889 69.075692 
L 357.305031 70.109538 
L 357.830685 68.041846 
L 358.338212 68.041846 
L 358.881992 65.974154 
L 359.190134 70.109538 
L 359.715787 69.075692 
L 360.060181 69.075692 
L 360.585835 67.008 
L 361.129614 69.075692 
L 361.673394 69.075692 
L 362.108418 71.143385 
L 362.344056 71.143385 
L 362.452811 68.041846 
L 362.579693 68.041846 
L 362.706575 72.177231 
L 362.978465 71.143385 
L 363.032843 71.143385 
L 363.467867 73.211077 
L 363.975394 73.211077 
L 364.138528 75.278769 
L 364.700434 76.312615 
L 364.71856 74.244923 
L 365.878623 74.244923 
L 366.494906 77.346462 
L 366.65804 73.211077 
L 367.038686 73.211077 
L 368.017489 69.075692 
L 368.380009 73.211077 
L 368.488765 72.177231 
L 369.540072 73.211077 
L 370.13823 77.346462 
L 372.222718 73.211077 
L 373.129018 73.211077 
L 373.817805 74.244923 
L 374.144073 73.211077 
L 374.705978 75.278769 
L 375.177254 76.312615 
L 375.322262 74.244923 
L 376.862971 77.346462 
L 377.642388 74.244923 
L 378.838703 74.244923 
L 379.418735 76.312615 
L 379.98064 75.278769 
L 380.216278 75.278769 
L 380.451916 77.346462 
L 380.88694 74.244923 
L 381.031948 78.380308 
L 381.249459 78.380308 
L 382.083255 76.312615 
L 382.590783 76.312615 
L 382.608908 75.278769 
L 383.043932 78.380308 
L 383.515208 75.278769 
L 384.385255 75.278769 
L 384.910909 76.312615 
L 385.563444 75.278769 
L 386.270358 75.278769 
L 387.666059 74.244923 
L 388.209838 74.244923 
L 388.318594 71.143385 
L 388.554232 75.278769 
L 389.007382 74.244923 
L 389.025508 71.143385 
L 389.804925 73.211077 
L 390.004311 73.211077 
L 390.403083 75.278769 
L 391.128122 74.244923 
L 391.871288 74.244923 
L 392.396941 76.312615 
L 393.629508 76.312615 
L 394.064532 74.244923 
L 394.155162 77.346462 
L 394.20954 71.143385 
L 394.717068 70.109538 
L 395.568989 70.109538 
L 396.439036 71.143385 
L 397.562847 71.143385 
L 398.088501 295.488 
L 398.487273 295.488 
L 398.487273 295.488 
" clip-path="url(#pfd8d92c9ff)" style="fill: none; stroke: #1f77b4; stroke-width: 1.5; stroke-linecap: square"/>
   </g>
   <g id="patch_3">
    <path d="M 57.6 307.584 
L 57.6 41.472 
" style="fill: none; stroke: #000000; stroke-width: 0.8; stroke-linejoin: miter; stroke-linecap: square"/>
   </g>
   <g id="patch_4">
    <path d="M 414.72 307.584 
L 414.72 41.472 
" style="fill: none; stroke: #000000; stroke-width: 0.8; stroke-linejoin: miter; stroke-linecap: square"/>
   </g>
   <g id="patch_5">
    <path d="M 57.6 307.584 
L 414.72 307.584 
" style="fill: none; stroke: #000000; stroke-width: 0.8; stroke-linejoin: miter; stroke-linecap: square"/>
   </g>
   <g id="patch_6">
    <path d="M 57.6 41.472 
L 414.72 41.472 
" style="fill: none; stroke: #000000; stroke-width: 0.8; stroke-linejoin: miter; stroke-linecap: square"/>
   </g>
   <g id="text_16">
    <!-- 50Mbps bandwidth, 50ms delay, 1 BDP queue size -->
    <g transform="translate(109.529531 368.404837) scale(0.1 -0.1)">
     <defs>
      <path id="DejaVuSans-62" d="M 3116 1747 
Q 3116 2381 2855 2742 
Q 2594 3103 2138 3103 
Q 1681 3103 1420 2742 
Q 1159 2381 1159 1747 
Q 1159 1113 1420 752 
Q 1681 391 2138 391 
Q 2594 391 2855 752 
Q 3116 1113 3116 1747 
z
M 1159 2969 
Q 1341 3281 1617 3432 
Q 1894 3584 2278 3584 
Q 2916 3584 3314 3078 
Q 3713 2572 3713 1747 
Q 3713 922 3314 415 
Q 2916 -91 2278 -91 
Q 1894 -91 1617 61 
Q 1341 213 1159 525 
L 1159 0 
L 581 0 
L 581 4863 
L 1159 4863 
L 1159 2969 
z
" transform="scale(0.015625)"/>
      <path id="DejaVuSans-68" d="M 3513 2113 
L 3513 0 
L 2938 0 
L 2938 2094 
Q 2938 2591 2744 2837 
Q 2550 3084 2163 3084 
Q 1697 3084 1428 2787 
Q 1159 2491 1159 1978 
L 1159 0 
L 581 0 
L 581 4863 
L 1159 4863 
L 1159 2956 
Q 1366 3272 1645 3428 
Q 1925 3584 2291 3584 
Q 2894 3584 3203 3211 
Q 3513 2838 3513 2113 
z
" transform="scale(0.015625)"/>
      <path id="DejaVuSans-2c" d="M 750 794 
L 1409 794 
L 1409 256 
L 897 -744 
L 494 -744 
L 750 256 
L 750 794 
z
" transform="scale(0.015625)"/>
      <path id="DejaVuSans-6c" d="M 603 4863 
L 1178 4863 
L 1178 0 
L 603 0 
L 603 4863 
z
" transform="scale(0.015625)"/>
      <path id="DejaVuSans-79" d="M 2059 -325 
Q 1816 -950 1584 -1140 
Q 1353 -1331 966 -1331 
L 506 -1331 
L 506 -850 
L 844 -850 
Q 1081 -850 1212 -737 
Q 1344 -625 1503 -206 
L 1606 56 
L 191 3500 
L 800 3500 
L 1894 763 
L 2988 3500 
L 3597 3500 
L 2059 -325 
z
" transform="scale(0.015625)"/>
      <path id="DejaVuSans-42" d="M 1259 2228 
L 1259 519 
L 2272 519 
Q 2781 519 3026 730 
Q 3272 941 3272 1375 
Q 3272 1813 3026 2020 
Q 2781 2228 2272 2228 
L 1259 2228 
z
M 1259 4147 
L 1259 2741 
L 2194 2741 
Q 2656 2741 2882 2914 
Q 3109 3088 3109 3444 
Q 3109 3797 2882 3972 
Q 2656 4147 2194 4147 
L 1259 4147 
z
M 628 4666 
L 2241 4666 
Q 2963 4666 3353 4366 
Q 3744 4066 3744 3513 
Q 3744 3084 3544 2831 
Q 3344 2578 2956 2516 
Q 3422 2416 3680 2098 
Q 3938 1781 3938 1306 
Q 3938 681 3513 340 
Q 3088 0 2303 0 
L 628 0 
L 628 4666 
z
" transform="scale(0.015625)"/>
      <path id="DejaVuSans-44" d="M 1259 4147 
L 1259 519 
L 2022 519 
Q 2988 519 3436 956 
Q 3884 1394 3884 2338 
Q 3884 3275 3436 3711 
Q 2988 4147 2022 4147 
L 1259 4147 
z
M 628 4666 
L 1925 4666 
Q 3281 4666 3915 4102 
Q 4550 3538 4550 2338 
Q 4550 1131 3912 565 
Q 3275 0 1925 0 
L 628 0 
L 628 4666 
z
" transform="scale(0.015625)"/>
      <path id="DejaVuSans-50" d="M 1259 4147 
L 1259 2394 
L 2053 2394 
Q 2494 2394 2734 2622 
Q 2975 2850 2975 3272 
Q 2975 3691 2734 3919 
Q 2494 4147 2053 4147 
L 1259 4147 
z
M 628 4666 
L 2053 4666 
Q 2838 4666 3239 4311 
Q 3641 3956 3641 3272 
Q 3641 2581 3239 2228 
Q 2838 1875 2053 1875 
L 1259 1875 
L 1259 0 
L 628 0 
L 628 4666 
z
" transform="scale(0.015625)"/>
      <path id="DejaVuSans-71" d="M 947 1747 
Q 947 1113 1208 752 
Q 1469 391 1925 391 
Q 2381 391 2643 752 
Q 2906 1113 2906 1747 
Q 2906 2381 2643 2742 
Q 2381 3103 1925 3103 
Q 1469 3103 1208 2742 
Q 947 2381 947 1747 
z
M 2906 525 
Q 2725 213 2448 61 
Q 2172 -91 1784 -91 
Q 1150 -91 751 415 
Q 353 922 353 1747 
Q 353 2572 751 3078 
Q 1150 3584 1784 3584 
Q 2172 3584 2448 3432 
Q 2725 3281 2906 2969 
L 2906 3500 
L 3481 3500 
L 3481 -1331 
L 2906 -1331 
L 2906 525 
z
" transform="scale(0.015625)"/>
      <path id="DejaVuSans-75" d="M 544 1381 
L 544 3500 
L 1119 3500 
L 1119 1403 
Q 1119 906 1312 657 
Q 1506 409 1894 409 
Q 2359 409 2629 706 
Q 2900 1003 2900 1516 
L 2900 3500 
L 3475 3500 
L 3475 0 
L 2900 0 
L 2900 538 
Q 2691 219 2414 64 
Q 2138 -91 1772 -91 
Q 1169 -91 856 284 
Q 544 659 544 1381 
z
M 1991 3584 
L 1991 3584 
z
" transform="scale(0.015625)"/>
      <path id="DejaVuSans-7a" d="M 353 3500 
L 3084 3500 
L 3084 2975 
L 922 459 
L 3084 459 
L 3084 0 
L 275 0 
L 275 525 
L 2438 3041 
L 353 3041 
L 353 3500 
z
" transform="scale(0.015625)"/>
     </defs>
     <use xlink:href="#DejaVuSans-35"/>
     <use xlink:href="#DejaVuSans-30" x="63.623047"/>
     <use xlink:href="#DejaVuSans-4d" x="127.246094"/>
     <use xlink:href="#DejaVuSans-62" x="213.525391"/>
     <use xlink:href="#DejaVuSans-70" x="277.001953"/>
     <use xlink:href="#DejaVuSans-73" x="340.478516"/>
     <use xlink:href="#DejaVuSans-20" x="392.578125"/>
     <use xlink:href="#DejaVuSans-62" x="424.365234"/>
     <use xlink:href="#DejaVuSans-61" x="487.841797"/>
     <use xlink:href="#DejaVuSans-6e" x="549.121094"/>
     <use xlink:href="#DejaVuSans-64" x="612.5"/>
     <use xlink:href="#DejaVuSans-77" x="675.976562"/>
     <use xlink:href="#DejaVuSans-69" x="757.763672"/>
     <use xlink:href="#DejaVuSans-64" x="785.546875"/>
     <use xlink:href="#DejaVuSans-74" x="849.023438"/>
     <use xlink:href="#DejaVuSans-68" x="888.232422"/>
     <use xlink:href="#DejaVuSans-2c" x="951.611328"/>
     <use xlink:href="#DejaVuSans-20" x="983.398438"/>
     <use xlink:href="#DejaVuSans-35" x="1015.185547"/>
     <use xlink:href="#DejaVuSans-30" x="1078.808594"/>
     <use xlink:href="#DejaVuSans-6d" x="1142.431641"/>
     <use xlink:href="#DejaVuSans-73" x="1239.84375"/>
     <use xlink:href="#DejaVuSans-20" x="1291.943359"/>
     <use xlink:href="#DejaVuSans-64" x="1323.730469"/>
     <use xlink:href="#DejaVuSans-65" x="1387.207031"/>
     <use xlink:href="#DejaVuSans-6c" x="1448.730469"/>
     <use xlink:href="#DejaVuSans-61" x="1476.513672"/>
     <use xlink:href="#DejaVuSans-79" x="1537.792969"/>
     <use xlink:href="#DejaVuSans-2c" x="1596.972656"/>
     <use xlink:href="#DejaVuSans-20" x="1628.759766"/>
     <use xlink:href="#DejaVuSans-31" x="1660.546875"/>
     <use xlink:href="#DejaVuSans-20" x="1724.169922"/>
     <use xlink:href="#DejaVuSans-42" x="1755.957031"/>
     <use xlink:href="#DejaVuSans-44" x="1824.560547"/>
     <use xlink:href="#DejaVuSans-50" x="1901.5625"/>
     <use xlink:href="#DejaVuSans-20" x="1961.865234"/>
     <use xlink:href="#DejaVuSans-71" x="1993.652344"/>
     <use xlink:href="#DejaVuSans-75" x="2057.128906"/>
     <use xlink:href="#DejaVuSans-65" x="2120.507812"/>
     <use xlink:href="#DejaVuSans-75" x="2182.03125"/>
     <use xlink:href="#DejaVuSans-65" x="2245.410156"/>
     <use xlink:href="#DejaVuSans-20" x="2306.933594"/>
     <use xlink:href="#DejaVuSans-73" x="2338.720703"/>
     <use xlink:href="#DejaVuSans-69" x="2390.820312"/>
     <use xlink:href="#DejaVuSans-7a" x="2418.603516"/>
     <use xlink:href="#DejaVuSans-65" x="2471.09375"/>
    </g>
   </g>
   <g id="text_17">
    <!-- Congestion window (BBR) -->
    <g transform="translate(158.715937 35.472) scale(0.12 -0.12)">
     <defs>
      <path id="DejaVuSans-52" d="M 2841 2188 
Q 3044 2119 3236 1894 
Q 3428 1669 3622 1275 
L 4263 0 
L 3584 0 
L 2988 1197 
Q 2756 1666 2539 1819 
Q 2322 1972 1947 1972 
L 1259 1972 
L 1259 0 
L 628 0 
L 628 4666 
L 2053 4666 
Q 2853 4666 3247 4331 
Q 3641 3997 3641 3322 
Q 3641 2881 3436 2590 
Q 3231 2300 2841 2188 
z
M 1259 4147 
L 1259 2491 
L 2053 2491 
Q 2509 2491 2742 2702 
Q 2975 2913 2975 3322 
Q 2975 3731 2742 3939 
Q 2509 4147 2053 4147 
L 1259 4147 
z
" transform="scale(0.015625)"/>
     </defs>
     <use xlink:href="#DejaVuSans-43"/>
     <use xlink:href="#DejaVuSans-6f" x="69.824219"/>
     <use xlink:href="#DejaVuSans-6e" x="131.005859"/>
     <use xlink:href="#DejaVuSans-67" x="194.384766"/>
     <use xlink:href="#DejaVuSans-65" x="257.861328"/>
     <use xlink:href="#DejaVuSans-73" x="319.384766"/>
     <use xlink:href="#DejaVuSans-74" x="371.484375"/>
     <use xlink:href="#DejaVuSans-69" x="410.693359"/>
     <use xlink:href="#DejaVuSans-6f" x="438.476562"/>
     <use xlink:href="#DejaVuSans-6e" x="499.658203"/>
     <use xlink:href="#DejaVuSans-20" x="563.037109"/>
     <use xlink:href="#DejaVuSans-77" x="594.824219"/>
     <use xlink:href="#DejaVuSans-69" x="676.611328"/>
     <use xlink:href="#DejaVuSans-6e" x="704.394531"/>
     <use xlink:href="#DejaVuSans-64" x="767.773438"/>
     <use xlink:href="#DejaVuSans-6f" x="831.25"/>
     <use xlink:href="#DejaVuSans-77" x="892.431641"/>
     <use xlink:href="#DejaVuSans-20" x="974.21875"/>
     <use xlink:href="#DejaVuSans-28" x="1006.005859"/>
     <use xlink:href="#DejaVuSans-42" x="1045.019531"/>
     <use xlink:href="#DejaVuSans-42" x="1113.623047"/>
     <use xlink:href="#DejaVuSans-52" x="1182.226562"/>
     <use xlink:href="#DejaVuSans-29" x="1251.708984"/>
    </g>
   </g>
   <g id="legend_1">
    <g id="patch_7">
     <path d="M 349.3575 183.367062 
L 407.72 183.367062 
Q 409.72 183.367062 409.72 181.367062 
L 409.72 167.688937 
Q 409.72 165.688937 407.72 165.688937 
L 349.3575 165.688937 
Q 347.3575 165.688937 347.3575 167.688937 
L 347.3575 181.367062 
Q 347.3575 183.367062 349.3575 183.367062 
z
" style="fill: #ffffff; opacity: 0.8; stroke: #cccccc; stroke-linejoin: miter"/>
    </g>
    <g id="line2d_15">
     <path d="M 351.3575 173.787375 
L 361.3575 173.787375 
L 371.3575 173.787375 
" style="fill: none; stroke: #1f77b4; stroke-width: 1.5; stroke-linecap: square"/>
    </g>
    <g id="text_18">
     <!-- cwnd -->
     <g transform="translate(379.3575 177.287375) scale(0.1 -0.1)">
      <defs>
       <path id="DejaVuSans-63" d="M 3122 3366 
L 3122 2828 
Q 2878 2963 2633 3030 
Q 2388 3097 2138 3097 
Q 1578 3097 1268 2742 
Q 959 2388 959 1747 
Q 959 1106 1268 751 
Q 1578 397 2138 397 
Q 2388 397 2633 464 
Q 2878 531 3122 666 
L 3122 134 
Q 2881 22 2623 -34 
Q 2366 -91 2075 -91 
Q 1284 -91 818 406 
Q 353 903 353 1747 
Q 353 2603 823 3093 
Q 1294 3584 2113 3584 
Q 2378 3584 2631 3529 
Q 2884 3475 3122 3366 
z
" transform="scale(0.015625)"/>
      </defs>
      <use xlink:href="#DejaVuSans-63"/>
      <use xlink:href="#DejaVuSans-77" x="54.980469"/>
      <use xlink:href="#DejaVuSans-6e" x="136.767578"/>
      <use xlink:href="#DejaVuSans-64" x="200.146484"/>
     </g>
    </g>
   </g>
  </g>
 </g>
 <defs>
  <clipPath id="pfd8d92c9ff">
   <rect x="57.6" y="41.472" width="357.12" height="266.112"/>
  </clipPath>
 </defs>
</svg>
