<?xml version="1.0" encoding="utf-8" standalone="no"?>
<!DOCTYPE svg PUBLIC "-//W3C//DTD SVG 1.1//EN"
  "http://www.w3.org/Graphics/SVG/1.1/DTD/svg11.dtd">
<svg xmlns:xlink="http://www.w3.org/1999/xlink" width="460.8pt" height="345.6pt" viewBox="0 0 460.8 345.6" xmlns="http://www.w3.org/2000/svg" version="1.1">
 <metadata>
  <rdf:RDF xmlns:dc="http://purl.org/dc/elements/1.1/" xmlns:cc="http://creativecommons.org/ns#" xmlns:rdf="http://www.w3.org/1999/02/22-rdf-syntax-ns#">
   <cc:Work>
    <dc:type rdf:resource="http://purl.org/dc/dcmitype/StillImage"/>
    <dc:date>2023-06-29T13:08:02.431009</dc:date>
    <dc:format>image/svg+xml</dc:format>
    <dc:creator>
     <cc:Agent>
      <dc:title>Matplotlib v3.7.1, https://matplotlib.org/</dc:title>
     </cc:Agent>
    </dc:creator>
   </cc:Work>
  </rdf:RDF>
 </metadata>
 <defs>
  <style type="text/css">*{stroke-linejoin: round; stroke-linecap: butt}</style>
 </defs>
 <g id="figure_1">
  <g id="patch_1">
   <path d="M 0 345.6 
L 460.8 345.6 
L 460.8 0 
L 0 0 
z
" style="fill: #ffffff"/>
  </g>
  <g id="axes_1">
   <g id="patch_2">
    <path d="M 57.6 307.584 
L 414.72 307.584 
L 414.72 41.472 
L 57.6 41.472 
z
" style="fill: #ffffff"/>
   </g>
   <g id="matplotlib.axis_1">
    <g id="xtick_1">
     <g id="line2d_1">
      <defs>
       <path id="m7be2b2157b" d="M 0 0 
L 0 3.5 
" style="stroke: #000000; stroke-width: 0.8"/>
      </defs>
      <g>
       <use xlink:href="#m7be2b2157b" x="73.732284" y="307.584" style="stroke: #000000; stroke-width: 0.8"/>
      </g>
     </g>
     <g id="text_1">
      <!-- 0 -->
      <g transform="translate(70.551034 322.182437) scale(0.1 -0.1)">
       <defs>
        <path id="DejaVuSans-30" d="M 2034 4250 
Q 1547 4250 1301 3770 
Q 1056 3291 1056 2328 
Q 1056 1369 1301 889 
Q 1547 409 2034 409 
Q 2525 409 2770 889 
Q 3016 1369 3016 2328 
Q 3016 3291 2770 3770 
Q 2525 4250 2034 4250 
z
M 2034 4750 
Q 2819 4750 3233 4129 
Q 3647 3509 3647 2328 
Q 3647 1150 3233 529 
Q 2819 -91 2034 -91 
Q 1250 -91 836 529 
Q 422 1150 422 2328 
Q 422 3509 836 4129 
Q 1250 4750 2034 4750 
z
" transform="scale(0.015625)"/>
       </defs>
       <use xlink:href="#DejaVuSans-30"/>
      </g>
     </g>
    </g>
    <g id="xtick_2">
     <g id="line2d_2">
      <g>
       <use xlink:href="#m7be2b2157b" x="117.403279" y="307.584" style="stroke: #000000; stroke-width: 0.8"/>
      </g>
     </g>
     <g id="text_2">
      <!-- 200 -->
      <g transform="translate(107.859529 322.182437) scale(0.1 -0.1)">
       <defs>
        <path id="DejaVuSans-32" d="M 1228 531 
L 3431 531 
L 3431 0 
L 469 0 
L 469 531 
Q 828 903 1448 1529 
Q 2069 2156 2228 2338 
Q 2531 2678 2651 2914 
Q 2772 3150 2772 3378 
Q 2772 3750 2511 3984 
Q 2250 4219 1831 4219 
Q 1534 4219 1204 4116 
Q 875 4013 500 3803 
L 500 4441 
Q 881 4594 1212 4672 
Q 1544 4750 1819 4750 
Q 2544 4750 2975 4387 
Q 3406 4025 3406 3419 
Q 3406 3131 3298 2873 
Q 3191 2616 2906 2266 
Q 2828 2175 2409 1742 
Q 1991 1309 1228 531 
z
" transform="scale(0.015625)"/>
       </defs>
       <use xlink:href="#DejaVuSans-32"/>
       <use xlink:href="#DejaVuSans-30" x="63.623047"/>
       <use xlink:href="#DejaVuSans-30" x="127.246094"/>
      </g>
     </g>
    </g>
    <g id="xtick_3">
     <g id="line2d_3">
      <g>
       <use xlink:href="#m7be2b2157b" x="161.074274" y="307.584" style="stroke: #000000; stroke-width: 0.8"/>
      </g>
     </g>
     <g id="text_3">
      <!-- 400 -->
      <g transform="translate(151.530524 322.182437) scale(0.1 -0.1)">
       <defs>
        <path id="DejaVuSans-34" d="M 2419 4116 
L 825 1625 
L 2419 1625 
L 2419 4116 
z
M 2253 4666 
L 3047 4666 
L 3047 1625 
L 3713 1625 
L 3713 1100 
L 3047 1100 
L 3047 0 
L 2419 0 
L 2419 1100 
L 313 1100 
L 313 1709 
L 2253 4666 
z
" transform="scale(0.015625)"/>
       </defs>
       <use xlink:href="#DejaVuSans-34"/>
       <use xlink:href="#DejaVuSans-30" x="63.623047"/>
       <use xlink:href="#DejaVuSans-30" x="127.246094"/>
      </g>
     </g>
    </g>
    <g id="xtick_4">
     <g id="line2d_4">
      <g>
       <use xlink:href="#m7be2b2157b" x="204.74527" y="307.584" style="stroke: #000000; stroke-width: 0.8"/>
      </g>
     </g>
     <g id="text_4">
      <!-- 600 -->
      <g transform="translate(195.20152 322.182437) scale(0.1 -0.1)">
       <defs>
        <path id="DejaVuSans-36" d="M 2113 2584 
Q 1688 2584 1439 2293 
Q 1191 2003 1191 1497 
Q 1191 994 1439 701 
Q 1688 409 2113 409 
Q 2538 409 2786 701 
Q 3034 994 3034 1497 
Q 3034 2003 2786 2293 
Q 2538 2584 2113 2584 
z
M 3366 4563 
L 3366 3988 
Q 3128 4100 2886 4159 
Q 2644 4219 2406 4219 
Q 1781 4219 1451 3797 
Q 1122 3375 1075 2522 
Q 1259 2794 1537 2939 
Q 1816 3084 2150 3084 
Q 2853 3084 3261 2657 
Q 3669 2231 3669 1497 
Q 3669 778 3244 343 
Q 2819 -91 2113 -91 
Q 1303 -91 875 529 
Q 447 1150 447 2328 
Q 447 3434 972 4092 
Q 1497 4750 2381 4750 
Q 2619 4750 2861 4703 
Q 3103 4656 3366 4563 
z
" transform="scale(0.015625)"/>
       </defs>
       <use xlink:href="#DejaVuSans-36"/>
       <use xlink:href="#DejaVuSans-30" x="63.623047"/>
       <use xlink:href="#DejaVuSans-30" x="127.246094"/>
      </g>
     </g>
    </g>
    <g id="xtick_5">
     <g id="line2d_5">
      <g>
       <use xlink:href="#m7be2b2157b" x="248.416265" y="307.584" style="stroke: #000000; stroke-width: 0.8"/>
      </g>
     </g>
     <g id="text_5">
      <!-- 800 -->
      <g transform="translate(238.872515 322.182437) scale(0.1 -0.1)">
       <defs>
        <path id="DejaVuSans-38" d="M 2034 2216 
Q 1584 2216 1326 1975 
Q 1069 1734 1069 1313 
Q 1069 891 1326 650 
Q 1584 409 2034 409 
Q 2484 409 2743 651 
Q 3003 894 3003 1313 
Q 3003 1734 2745 1975 
Q 2488 2216 2034 2216 
z
M 1403 2484 
Q 997 2584 770 2862 
Q 544 3141 544 3541 
Q 544 4100 942 4425 
Q 1341 4750 2034 4750 
Q 2731 4750 3128 4425 
Q 3525 4100 3525 3541 
Q 3525 3141 3298 2862 
Q 3072 2584 2669 2484 
Q 3125 2378 3379 2068 
Q 3634 1759 3634 1313 
Q 3634 634 3220 271 
Q 2806 -91 2034 -91 
Q 1263 -91 848 271 
Q 434 634 434 1313 
Q 434 1759 690 2068 
Q 947 2378 1403 2484 
z
M 1172 3481 
Q 1172 3119 1398 2916 
Q 1625 2713 2034 2713 
Q 2441 2713 2670 2916 
Q 2900 3119 2900 3481 
Q 2900 3844 2670 4047 
Q 2441 4250 2034 4250 
Q 1625 4250 1398 4047 
Q 1172 3844 1172 3481 
z
" transform="scale(0.015625)"/>
       </defs>
       <use xlink:href="#DejaVuSans-38"/>
       <use xlink:href="#DejaVuSans-30" x="63.623047"/>
       <use xlink:href="#DejaVuSans-30" x="127.246094"/>
      </g>
     </g>
    </g>
    <g id="xtick_6">
     <g id="line2d_6">
      <g>
       <use xlink:href="#m7be2b2157b" x="292.08726" y="307.584" style="stroke: #000000; stroke-width: 0.8"/>
      </g>
     </g>
     <g id="text_6">
      <!-- 1000 -->
      <g transform="translate(279.36226 322.182437) scale(0.1 -0.1)">
       <defs>
        <path id="DejaVuSans-31" d="M 794 531 
L 1825 531 
L 1825 4091 
L 703 3866 
L 703 4441 
L 1819 4666 
L 2450 4666 
L 2450 531 
L 3481 531 
L 3481 0 
L 794 0 
L 794 531 
z
" transform="scale(0.015625)"/>
       </defs>
       <use xlink:href="#DejaVuSans-31"/>
       <use xlink:href="#DejaVuSans-30" x="63.623047"/>
       <use xlink:href="#DejaVuSans-30" x="127.246094"/>
       <use xlink:href="#DejaVuSans-30" x="190.869141"/>
      </g>
     </g>
    </g>
    <g id="xtick_7">
     <g id="line2d_7">
      <g>
       <use xlink:href="#m7be2b2157b" x="335.758255" y="307.584" style="stroke: #000000; stroke-width: 0.8"/>
      </g>
     </g>
     <g id="text_7">
      <!-- 1200 -->
      <g transform="translate(323.033255 322.182437) scale(0.1 -0.1)">
       <use xlink:href="#DejaVuSans-31"/>
       <use xlink:href="#DejaVuSans-32" x="63.623047"/>
       <use xlink:href="#DejaVuSans-30" x="127.246094"/>
       <use xlink:href="#DejaVuSans-30" x="190.869141"/>
      </g>
     </g>
    </g>
    <g id="xtick_8">
     <g id="line2d_8">
      <g>
       <use xlink:href="#m7be2b2157b" x="379.42925" y="307.584" style="stroke: #000000; stroke-width: 0.8"/>
      </g>
     </g>
     <g id="text_8">
      <!-- 1400 -->
      <g transform="translate(366.70425 322.182437) scale(0.1 -0.1)">
       <use xlink:href="#DejaVuSans-31"/>
       <use xlink:href="#DejaVuSans-34" x="63.623047"/>
       <use xlink:href="#DejaVuSans-30" x="127.246094"/>
       <use xlink:href="#DejaVuSans-30" x="190.869141"/>
      </g>
     </g>
    </g>
    <g id="text_9">
     <!-- Timestamp (s) -->
     <g transform="translate(200.157656 335.860562) scale(0.1 -0.1)">
      <defs>
       <path id="DejaVuSans-54" d="M -19 4666 
L 3928 4666 
L 3928 4134 
L 2272 4134 
L 2272 0 
L 1638 0 
L 1638 4134 
L -19 4134 
L -19 4666 
z
" transform="scale(0.015625)"/>
       <path id="DejaVuSans-69" d="M 603 3500 
L 1178 3500 
L 1178 0 
L 603 0 
L 603 3500 
z
M 603 4863 
L 1178 4863 
L 1178 4134 
L 603 4134 
L 603 4863 
z
" transform="scale(0.015625)"/>
       <path id="DejaVuSans-6d" d="M 3328 2828 
Q 3544 3216 3844 3400 
Q 4144 3584 4550 3584 
Q 5097 3584 5394 3201 
Q 5691 2819 5691 2113 
L 5691 0 
L 5113 0 
L 5113 2094 
Q 5113 2597 4934 2840 
Q 4756 3084 4391 3084 
Q 3944 3084 3684 2787 
Q 3425 2491 3425 1978 
L 3425 0 
L 2847 0 
L 2847 2094 
Q 2847 2600 2669 2842 
Q 2491 3084 2119 3084 
Q 1678 3084 1418 2786 
Q 1159 2488 1159 1978 
L 1159 0 
L 581 0 
L 581 3500 
L 1159 3500 
L 1159 2956 
Q 1356 3278 1631 3431 
Q 1906 3584 2284 3584 
Q 2666 3584 2933 3390 
Q 3200 3197 3328 2828 
z
" transform="scale(0.015625)"/>
       <path id="DejaVuSans-65" d="M 3597 1894 
L 3597 1613 
L 953 1613 
Q 991 1019 1311 708 
Q 1631 397 2203 397 
Q 2534 397 2845 478 
Q 3156 559 3463 722 
L 3463 178 
Q 3153 47 2828 -22 
Q 2503 -91 2169 -91 
Q 1331 -91 842 396 
Q 353 884 353 1716 
Q 353 2575 817 3079 
Q 1281 3584 2069 3584 
Q 2775 3584 3186 3129 
Q 3597 2675 3597 1894 
z
M 3022 2063 
Q 3016 2534 2758 2815 
Q 2500 3097 2075 3097 
Q 1594 3097 1305 2825 
Q 1016 2553 972 2059 
L 3022 2063 
z
" transform="scale(0.015625)"/>
       <path id="DejaVuSans-73" d="M 2834 3397 
L 2834 2853 
Q 2591 2978 2328 3040 
Q 2066 3103 1784 3103 
Q 1356 3103 1142 2972 
Q 928 2841 928 2578 
Q 928 2378 1081 2264 
Q 1234 2150 1697 2047 
L 1894 2003 
Q 2506 1872 2764 1633 
Q 3022 1394 3022 966 
Q 3022 478 2636 193 
Q 2250 -91 1575 -91 
Q 1294 -91 989 -36 
Q 684 19 347 128 
L 347 722 
Q 666 556 975 473 
Q 1284 391 1588 391 
Q 1994 391 2212 530 
Q 2431 669 2431 922 
Q 2431 1156 2273 1281 
Q 2116 1406 1581 1522 
L 1381 1569 
Q 847 1681 609 1914 
Q 372 2147 372 2553 
Q 372 3047 722 3315 
Q 1072 3584 1716 3584 
Q 2034 3584 2315 3537 
Q 2597 3491 2834 3397 
z
" transform="scale(0.015625)"/>
       <path id="DejaVuSans-74" d="M 1172 4494 
L 1172 3500 
L 2356 3500 
L 2356 3053 
L 1172 3053 
L 1172 1153 
Q 1172 725 1289 603 
Q 1406 481 1766 481 
L 2356 481 
L 2356 0 
L 1766 0 
Q 1100 0 847 248 
Q 594 497 594 1153 
L 594 3053 
L 172 3053 
L 172 3500 
L 594 3500 
L 594 4494 
L 1172 4494 
z
" transform="scale(0.015625)"/>
       <path id="DejaVuSans-61" d="M 2194 1759 
Q 1497 1759 1228 1600 
Q 959 1441 959 1056 
Q 959 750 1161 570 
Q 1363 391 1709 391 
Q 2188 391 2477 730 
Q 2766 1069 2766 1631 
L 2766 1759 
L 2194 1759 
z
M 3341 1997 
L 3341 0 
L 2766 0 
L 2766 531 
Q 2569 213 2275 61 
Q 1981 -91 1556 -91 
Q 1019 -91 701 211 
Q 384 513 384 1019 
Q 384 1609 779 1909 
Q 1175 2209 1959 2209 
L 2766 2209 
L 2766 2266 
Q 2766 2663 2505 2880 
Q 2244 3097 1772 3097 
Q 1472 3097 1187 3025 
Q 903 2953 641 2809 
L 641 3341 
Q 956 3463 1253 3523 
Q 1550 3584 1831 3584 
Q 2591 3584 2966 3190 
Q 3341 2797 3341 1997 
z
" transform="scale(0.015625)"/>
       <path id="DejaVuSans-70" d="M 1159 525 
L 1159 -1331 
L 581 -1331 
L 581 3500 
L 1159 3500 
L 1159 2969 
Q 1341 3281 1617 3432 
Q 1894 3584 2278 3584 
Q 2916 3584 3314 3078 
Q 3713 2572 3713 1747 
Q 3713 922 3314 415 
Q 2916 -91 2278 -91 
Q 1894 -91 1617 61 
Q 1341 213 1159 525 
z
M 3116 1747 
Q 3116 2381 2855 2742 
Q 2594 3103 2138 3103 
Q 1681 3103 1420 2742 
Q 1159 2381 1159 1747 
Q 1159 1113 1420 752 
Q 1681 391 2138 391 
Q 2594 391 2855 752 
Q 3116 1113 3116 1747 
z
" transform="scale(0.015625)"/>
       <path id="DejaVuSans-20" transform="scale(0.015625)"/>
       <path id="DejaVuSans-28" d="M 1984 4856 
Q 1566 4138 1362 3434 
Q 1159 2731 1159 2009 
Q 1159 1288 1364 580 
Q 1569 -128 1984 -844 
L 1484 -844 
Q 1016 -109 783 600 
Q 550 1309 550 2009 
Q 550 2706 781 3412 
Q 1013 4119 1484 4856 
L 1984 4856 
z
" transform="scale(0.015625)"/>
       <path id="DejaVuSans-29" d="M 513 4856 
L 1013 4856 
Q 1481 4119 1714 3412 
Q 1947 2706 1947 2009 
Q 1947 1309 1714 600 
Q 1481 -109 1013 -844 
L 513 -844 
Q 928 -128 1133 580 
Q 1338 1288 1338 2009 
Q 1338 2731 1133 3434 
Q 928 4138 513 4856 
z
" transform="scale(0.015625)"/>
      </defs>
      <use xlink:href="#DejaVuSans-54"/>
      <use xlink:href="#DejaVuSans-69" x="57.958984"/>
      <use xlink:href="#DejaVuSans-6d" x="85.742188"/>
      <use xlink:href="#DejaVuSans-65" x="183.154297"/>
      <use xlink:href="#DejaVuSans-73" x="244.677734"/>
      <use xlink:href="#DejaVuSans-74" x="296.777344"/>
      <use xlink:href="#DejaVuSans-61" x="335.986328"/>
      <use xlink:href="#DejaVuSans-6d" x="397.265625"/>
      <use xlink:href="#DejaVuSans-70" x="494.677734"/>
      <use xlink:href="#DejaVuSans-20" x="558.154297"/>
      <use xlink:href="#DejaVuSans-28" x="589.941406"/>
      <use xlink:href="#DejaVuSans-73" x="628.955078"/>
      <use xlink:href="#DejaVuSans-29" x="681.054688"/>
     </g>
    </g>
   </g>
   <g id="matplotlib.axis_2">
    <g id="ytick_1">
     <g id="line2d_9">
      <defs>
       <path id="mc98d2a1014" d="M 0 0 
L -3.5 0 
" style="stroke: #000000; stroke-width: 0.8"/>
      </defs>
      <g>
       <use xlink:href="#mc98d2a1014" x="57.6" y="302.466462" style="stroke: #000000; stroke-width: 0.8"/>
      </g>
     </g>
     <g id="text_10">
      <!-- 200 -->
      <g transform="translate(31.5125 306.26568) scale(0.1 -0.1)">
       <use xlink:href="#DejaVuSans-32"/>
       <use xlink:href="#DejaVuSans-30" x="63.623047"/>
       <use xlink:href="#DejaVuSans-30" x="127.246094"/>
      </g>
     </g>
    </g>
    <g id="ytick_2">
     <g id="line2d_10">
      <g>
       <use xlink:href="#mc98d2a1014" x="57.6" y="244.312615" style="stroke: #000000; stroke-width: 0.8"/>
      </g>
     </g>
     <g id="text_11">
      <!-- 250 -->
      <g transform="translate(31.5125 248.111834) scale(0.1 -0.1)">
       <defs>
        <path id="DejaVuSans-35" d="M 691 4666 
L 3169 4666 
L 3169 4134 
L 1269 4134 
L 1269 2991 
Q 1406 3038 1543 3061 
Q 1681 3084 1819 3084 
Q 2600 3084 3056 2656 
Q 3513 2228 3513 1497 
Q 3513 744 3044 326 
Q 2575 -91 1722 -91 
Q 1428 -91 1123 -41 
Q 819 9 494 109 
L 494 744 
Q 775 591 1075 516 
Q 1375 441 1709 441 
Q 2250 441 2565 725 
Q 2881 1009 2881 1497 
Q 2881 1984 2565 2268 
Q 2250 2553 1709 2553 
Q 1456 2553 1204 2497 
Q 953 2441 691 2322 
L 691 4666 
z
" transform="scale(0.015625)"/>
       </defs>
       <use xlink:href="#DejaVuSans-32"/>
       <use xlink:href="#DejaVuSans-35" x="63.623047"/>
       <use xlink:href="#DejaVuSans-30" x="127.246094"/>
      </g>
     </g>
    </g>
    <g id="ytick_3">
     <g id="line2d_11">
      <g>
       <use xlink:href="#mc98d2a1014" x="57.6" y="186.158769" style="stroke: #000000; stroke-width: 0.8"/>
      </g>
     </g>
     <g id="text_12">
      <!-- 300 -->
      <g transform="translate(31.5125 189.957988) scale(0.1 -0.1)">
       <defs>
        <path id="DejaVuSans-33" d="M 2597 2516 
Q 3050 2419 3304 2112 
Q 3559 1806 3559 1356 
Q 3559 666 3084 287 
Q 2609 -91 1734 -91 
Q 1441 -91 1130 -33 
Q 819 25 488 141 
L 488 750 
Q 750 597 1062 519 
Q 1375 441 1716 441 
Q 2309 441 2620 675 
Q 2931 909 2931 1356 
Q 2931 1769 2642 2001 
Q 2353 2234 1838 2234 
L 1294 2234 
L 1294 2753 
L 1863 2753 
Q 2328 2753 2575 2939 
Q 2822 3125 2822 3475 
Q 2822 3834 2567 4026 
Q 2313 4219 1838 4219 
Q 1578 4219 1281 4162 
Q 984 4106 628 3988 
L 628 4550 
Q 988 4650 1302 4700 
Q 1616 4750 1894 4750 
Q 2613 4750 3031 4423 
Q 3450 4097 3450 3541 
Q 3450 3153 3228 2886 
Q 3006 2619 2597 2516 
z
" transform="scale(0.015625)"/>
       </defs>
       <use xlink:href="#DejaVuSans-33"/>
       <use xlink:href="#DejaVuSans-30" x="63.623047"/>
       <use xlink:href="#DejaVuSans-30" x="127.246094"/>
      </g>
     </g>
    </g>
    <g id="ytick_4">
     <g id="line2d_12">
      <g>
       <use xlink:href="#mc98d2a1014" x="57.6" y="128.004923" style="stroke: #000000; stroke-width: 0.8"/>
      </g>
     </g>
     <g id="text_13">
      <!-- 350 -->
      <g transform="translate(31.5125 131.804142) scale(0.1 -0.1)">
       <use xlink:href="#DejaVuSans-33"/>
       <use xlink:href="#DejaVuSans-35" x="63.623047"/>
       <use xlink:href="#DejaVuSans-30" x="127.246094"/>
      </g>
     </g>
    </g>
    <g id="ytick_5">
     <g id="line2d_13">
      <g>
       <use xlink:href="#mc98d2a1014" x="57.6" y="69.851077" style="stroke: #000000; stroke-width: 0.8"/>
      </g>
     </g>
     <g id="text_14">
      <!-- 400 -->
      <g transform="translate(31.5125 73.650296) scale(0.1 -0.1)">
       <use xlink:href="#DejaVuSans-34"/>
       <use xlink:href="#DejaVuSans-30" x="63.623047"/>
       <use xlink:href="#DejaVuSans-30" x="127.246094"/>
      </g>
     </g>
    </g>
    <g id="text_15">
     <!-- Congestion window (MSS) -->
     <g transform="translate(25.432812 239.392063) rotate(-90) scale(0.1 -0.1)">
      <defs>
       <path id="DejaVuSans-43" d="M 4122 4306 
L 4122 3641 
Q 3803 3938 3442 4084 
Q 3081 4231 2675 4231 
Q 1875 4231 1450 3742 
Q 1025 3253 1025 2328 
Q 1025 1406 1450 917 
Q 1875 428 2675 428 
Q 3081 428 3442 575 
Q 3803 722 4122 1019 
L 4122 359 
Q 3791 134 3420 21 
Q 3050 -91 2638 -91 
Q 1578 -91 968 557 
Q 359 1206 359 2328 
Q 359 3453 968 4101 
Q 1578 4750 2638 4750 
Q 3056 4750 3426 4639 
Q 3797 4528 4122 4306 
z
" transform="scale(0.015625)"/>
       <path id="DejaVuSans-6f" d="M 1959 3097 
Q 1497 3097 1228 2736 
Q 959 2375 959 1747 
Q 959 1119 1226 758 
Q 1494 397 1959 397 
Q 2419 397 2687 759 
Q 2956 1122 2956 1747 
Q 2956 2369 2687 2733 
Q 2419 3097 1959 3097 
z
M 1959 3584 
Q 2709 3584 3137 3096 
Q 3566 2609 3566 1747 
Q 3566 888 3137 398 
Q 2709 -91 1959 -91 
Q 1206 -91 779 398 
Q 353 888 353 1747 
Q 353 2609 779 3096 
Q 1206 3584 1959 3584 
z
" transform="scale(0.015625)"/>
       <path id="DejaVuSans-6e" d="M 3513 2113 
L 3513 0 
L 2938 0 
L 2938 2094 
Q 2938 2591 2744 2837 
Q 2550 3084 2163 3084 
Q 1697 3084 1428 2787 
Q 1159 2491 1159 1978 
L 1159 0 
L 581 0 
L 581 3500 
L 1159 3500 
L 1159 2956 
Q 1366 3272 1645 3428 
Q 1925 3584 2291 3584 
Q 2894 3584 3203 3211 
Q 3513 2838 3513 2113 
z
" transform="scale(0.015625)"/>
       <path id="DejaVuSans-67" d="M 2906 1791 
Q 2906 2416 2648 2759 
Q 2391 3103 1925 3103 
Q 1463 3103 1205 2759 
Q 947 2416 947 1791 
Q 947 1169 1205 825 
Q 1463 481 1925 481 
Q 2391 481 2648 825 
Q 2906 1169 2906 1791 
z
M 3481 434 
Q 3481 -459 3084 -895 
Q 2688 -1331 1869 -1331 
Q 1566 -1331 1297 -1286 
Q 1028 -1241 775 -1147 
L 775 -588 
Q 1028 -725 1275 -790 
Q 1522 -856 1778 -856 
Q 2344 -856 2625 -561 
Q 2906 -266 2906 331 
L 2906 616 
Q 2728 306 2450 153 
Q 2172 0 1784 0 
Q 1141 0 747 490 
Q 353 981 353 1791 
Q 353 2603 747 3093 
Q 1141 3584 1784 3584 
Q 2172 3584 2450 3431 
Q 2728 3278 2906 2969 
L 2906 3500 
L 3481 3500 
L 3481 434 
z
" transform="scale(0.015625)"/>
       <path id="DejaVuSans-77" d="M 269 3500 
L 844 3500 
L 1563 769 
L 2278 3500 
L 2956 3500 
L 3675 769 
L 4391 3500 
L 4966 3500 
L 4050 0 
L 3372 0 
L 2619 2869 
L 1863 0 
L 1184 0 
L 269 3500 
z
" transform="scale(0.015625)"/>
       <path id="DejaVuSans-64" d="M 2906 2969 
L 2906 4863 
L 3481 4863 
L 3481 0 
L 2906 0 
L 2906 525 
Q 2725 213 2448 61 
Q 2172 -91 1784 -91 
Q 1150 -91 751 415 
Q 353 922 353 1747 
Q 353 2572 751 3078 
Q 1150 3584 1784 3584 
Q 2172 3584 2448 3432 
Q 2725 3281 2906 2969 
z
M 947 1747 
Q 947 1113 1208 752 
Q 1469 391 1925 391 
Q 2381 391 2643 752 
Q 2906 1113 2906 1747 
Q 2906 2381 2643 2742 
Q 2381 3103 1925 3103 
Q 1469 3103 1208 2742 
Q 947 2381 947 1747 
z
" transform="scale(0.015625)"/>
       <path id="DejaVuSans-4d" d="M 628 4666 
L 1569 4666 
L 2759 1491 
L 3956 4666 
L 4897 4666 
L 4897 0 
L 4281 0 
L 4281 4097 
L 3078 897 
L 2444 897 
L 1241 4097 
L 1241 0 
L 628 0 
L 628 4666 
z
" transform="scale(0.015625)"/>
       <path id="DejaVuSans-53" d="M 3425 4513 
L 3425 3897 
Q 3066 4069 2747 4153 
Q 2428 4238 2131 4238 
Q 1616 4238 1336 4038 
Q 1056 3838 1056 3469 
Q 1056 3159 1242 3001 
Q 1428 2844 1947 2747 
L 2328 2669 
Q 3034 2534 3370 2195 
Q 3706 1856 3706 1288 
Q 3706 609 3251 259 
Q 2797 -91 1919 -91 
Q 1588 -91 1214 -16 
Q 841 59 441 206 
L 441 856 
Q 825 641 1194 531 
Q 1563 422 1919 422 
Q 2459 422 2753 634 
Q 3047 847 3047 1241 
Q 3047 1584 2836 1778 
Q 2625 1972 2144 2069 
L 1759 2144 
Q 1053 2284 737 2584 
Q 422 2884 422 3419 
Q 422 4038 858 4394 
Q 1294 4750 2059 4750 
Q 2388 4750 2728 4690 
Q 3069 4631 3425 4513 
z
" transform="scale(0.015625)"/>
      </defs>
      <use xlink:href="#DejaVuSans-43"/>
      <use xlink:href="#DejaVuSans-6f" x="69.824219"/>
      <use xlink:href="#DejaVuSans-6e" x="131.005859"/>
      <use xlink:href="#DejaVuSans-67" x="194.384766"/>
      <use xlink:href="#DejaVuSans-65" x="257.861328"/>
      <use xlink:href="#DejaVuSans-73" x="319.384766"/>
      <use xlink:href="#DejaVuSans-74" x="371.484375"/>
      <use xlink:href="#DejaVuSans-69" x="410.693359"/>
      <use xlink:href="#DejaVuSans-6f" x="438.476562"/>
      <use xlink:href="#DejaVuSans-6e" x="499.658203"/>
      <use xlink:href="#DejaVuSans-20" x="563.037109"/>
      <use xlink:href="#DejaVuSans-77" x="594.824219"/>
      <use xlink:href="#DejaVuSans-69" x="676.611328"/>
      <use xlink:href="#DejaVuSans-6e" x="704.394531"/>
      <use xlink:href="#DejaVuSans-64" x="767.773438"/>
      <use xlink:href="#DejaVuSans-6f" x="831.25"/>
      <use xlink:href="#DejaVuSans-77" x="892.431641"/>
      <use xlink:href="#DejaVuSans-20" x="974.21875"/>
      <use xlink:href="#DejaVuSans-28" x="1006.005859"/>
      <use xlink:href="#DejaVuSans-4d" x="1045.019531"/>
      <use xlink:href="#DejaVuSans-53" x="1131.298828"/>
      <use xlink:href="#DejaVuSans-53" x="1194.775391"/>
      <use xlink:href="#DejaVuSans-29" x="1258.251953"/>
     </g>
    </g>
   </g>
   <g id="line2d_14">
    <path d="M 73.832727 276.878769 
L 73.976842 274.552615 
L 74.80659 258.269538 
L 74.810958 258.269538 
L 75.452921 246.638769 
L 76.243366 232.681846 
L 76.2521 232.681846 
L 80.217427 172.201846 
L 84.505919 116.374154 
L 87.571622 80.318769 
L 87.632762 80.318769 
L 87.689534 79.155692 
L 90.012831 54.731077 
L 90.156945 294.324923 
L 90.449541 289.672615 
L 90.825112 281.531077 
L 93.59822 230.355692 
L 98.668422 154.755692 
L 99.930514 138.472615 
L 100.083362 136.146462 
L 100.284249 133.820308 
L 100.913111 125.678769 
L 101.341087 119.863385 
L 101.389125 119.863385 
L 103.280079 96.601846 
L 103.349953 96.601846 
L 104.860969 79.155692 
L 105.005084 77.992615 
L 105.122995 75.666462 
L 105.297679 74.503385 
L 105.459262 72.177231 
L 105.472363 72.177231 
L 106.088124 65.198769 
L 106.367619 62.872615 
L 106.511733 60.546462 
L 106.699518 59.383385 
L 106.839265 57.057231 
L 107.140595 295.488 
L 107.236672 293.161846 
L 108.088256 275.715692 
L 109.223702 253.617231 
L 109.51193 248.964923 
L 109.516297 247.801846 
L 111.127757 221.051077 
L 111.132124 219.888 
L 112.293773 202.441846 
L 112.477191 198.952615 
L 113.865929 179.180308 
L 114.376879 171.038769 
L 114.438019 171.038769 
L 115.049413 161.734154 
L 115.058147 161.734154 
L 115.451186 157.081846 
L 115.56473 154.755692 
L 115.634604 154.755692 
L 115.643338 153.592615 
L 117.866192 125.678769 
L 118.398978 118.700308 
L 118.656637 116.374154 
L 118.682839 115.211077 
L 121.691771 81.481846 
L 121.739809 80.318769 
L 123.971397 55.894154 
L 124.355702 293.161846 
L 124.464879 290.835692 
L 124.486715 290.835692 
L 124.61336 287.346462 
L 124.648297 287.346462 
L 125.809946 264.084923 
L 125.862351 264.084923 
L 126.045769 260.595692 
L 127.434507 236.171077 
L 127.451975 236.171077 
L 127.500013 235.008 
L 128.198749 223.377231 
L 128.216218 223.377231 
L 129.52198 202.441846 
L 129.530715 202.441846 
L 133.01566 152.429538 
L 133.024394 152.429538 
L 133.592117 144.288 
L 134.334524 134.983385 
L 134.478638 132.657231 
L 134.89788 128.004923 
L 135.020159 125.678769 
L 135.085665 125.678769 
L 135.181741 123.352615 
L 135.352058 122.189538 
L 135.386995 121.026462 
L 136.116301 112.884923 
L 136.592314 107.069538 
L 139.915677 69.851077 
L 139.933146 69.851077 
L 140.203906 66.361846 
L 140.24321 66.361846 
L 140.291248 65.198769 
L 140.444096 64.035692 
L 140.518337 62.872615 
L 141.208339 54.731077 
L 141.304415 54.731077 
L 141.417959 295.488 
L 145.195501 225.703385 
L 147.256772 193.137231 
L 147.296075 193.137231 
L 151.619504 133.820308 
L 151.833492 131.494154 
L 152.331341 124.515692 
L 152.392481 124.515692 
L 152.536595 122.189538 
L 152.676342 121.026462 
L 152.794254 118.700308 
L 152.802988 118.700308 
L 153.047545 116.374154 
L 153.05628 115.211077 
L 153.916598 105.906462 
L 153.920965 104.743385 
L 154.091282 103.580308 
L 155.204893 90.786462 
L 155.231095 90.786462 
L 155.235462 89.623385 
L 155.48002 87.297231 
L 156.091414 80.318769 
L 156.35344 77.992615 
L 156.851289 72.177231 
L 156.929897 72.177231 
L 157.139518 69.851077 
L 157.279265 259.432615 
L 157.908127 290.835692 
L 157.969267 289.672615 
L 158.021672 288.509538 
L 160.49345 240.823385 
L 160.515286 240.823385 
L 160.52402 239.660308 
L 161.048072 231.518769 
L 161.078641 230.355692 
L 162.663899 204.768 
L 164.083206 182.669538 
L 165.707767 160.571077 
L 165.720868 160.571077 
L 167.135809 141.961846 
L 167.140176 141.961846 
L 167.52448 136.146462 
L 168.074735 129.168 
L 168.279989 126.841846 
L 169.856512 107.069538 
L 169.90455 107.069538 
L 170.332525 101.254154 
L 170.4155 101.254154 
L 170.437336 100.091077 
L 170.629488 98.928 
L 170.673159 97.764923 
L 170.817273 96.601846 
L 170.847843 95.438769 
L 171.039995 94.275692 
L 171.057464 93.112615 
L 171.476705 88.460308 
L 171.961453 82.644923 
L 172.061897 82.644923 
L 172.070631 81.481846 
L 173.197343 69.851077 
L 174.066395 60.546462 
L 174.088231 60.546462 
L 174.14937 59.383385 
L 174.503105 55.894154 
L 174.669055 109.395692 
L 174.756397 281.531077 
L 175.08393 289.672615 
L 175.503171 280.368 
L 175.970451 272.226462 
L 177.411594 244.312615 
L 177.852671 237.334154 
L 178.136532 232.681846 
L 178.140899 232.681846 
L 178.31995 229.192615 
L 179.542738 209.420308 
L 179.551472 209.420308 
L 180.656349 191.974154 
L 184.180598 141.961846 
L 184.246104 141.961846 
L 184.355282 139.635692 
L 184.412054 139.635692 
L 184.529966 137.309538 
L 186.975542 108.232615 
L 187.451555 102.417231 
L 187.661176 100.091077 
L 187.683012 100.091077 
L 187.796556 98.928 
L 188.600103 88.460308 
L 189.093585 83.808 
L 189.150357 82.644923 
L 190.119853 72.177231 
L 190.381879 68.688 
L 191.670174 54.731077 
L 191.919098 294.324923 
L 193.495621 262.921846 
L 193.543659 262.921846 
L 193.692141 259.432615 
L 193.914863 255.943385 
L 194.853789 239.660308 
L 194.86689 239.660308 
L 194.89746 238.497231 
L 198.666267 179.180308 
L 198.696837 179.180308 
L 198.806014 176.854154 
L 203.317228 117.537231 
L 204.906852 98.928 
L 205.216916 95.438769 
L 205.234385 95.438769 
L 205.374132 93.112615 
L 205.941855 87.297231 
L 205.946222 87.297231 
L 206.212615 83.808 
L 206.256286 83.808 
L 206.347995 82.644923 
L 206.548882 80.318769 
L 207.195212 72.177231 
L 207.251985 72.177231 
L 207.985657 64.035692 
L 208.01186 64.035692 
L 208.182177 61.709538 
L 208.238949 61.709538 
L 208.286987 60.546462 
L 208.754267 55.894154 
L 208.758634 55.894154 
L 208.819773 54.731077 
L 208.91585 62.872615 
L 209.129838 294.324923 
L 209.134205 293.161846 
L 209.142939 293.161846 
L 209.745599 281.531077 
L 209.819839 279.204923 
L 209.929017 278.041846 
L 210.230347 272.226462 
L 211.361425 251.291077 
L 211.378894 251.291077 
L 211.457502 248.964923 
L 212.090731 238.497231 
L 212.523074 231.518769 
L 213.195607 219.888 
L 213.837571 209.420308 
L 214.352889 201.278769 
L 215.029789 191.974154 
L 217.414225 158.244923 
L 217.868404 152.429538 
L 217.916442 151.266462 
L 219.143597 134.983385 
L 219.811763 126.841846 
L 220.161131 122.189538 
L 220.340182 119.863385 
L 221.693983 104.743385 
L 222.034617 100.091077 
L 222.100123 100.091077 
L 222.148161 98.928 
L 223.921204 79.155692 
L 223.973609 77.992615 
L 225.200764 65.198769 
L 225.484625 61.709538 
L 225.497727 61.709538 
L 225.641841 59.383385 
L 225.73355 59.383385 
L 226.065449 55.894154 
L 226.074184 55.894154 
L 226.082918 54.731077 
L 226.104753 60.546462 
L 226.135323 129.168 
L 226.371146 293.161846 
L 227.952036 261.758769 
L 227.965138 261.758769 
L 229.506724 233.844923 
L 229.519825 233.844923 
L 229.550395 232.681846 
L 230.157422 223.377231 
L 230.270966 221.051077 
L 232.703441 183.832615 
L 233.087745 179.180308 
L 233.105214 178.017231 
L 233.921861 167.549538 
L 233.965532 166.386462 
L 235.293131 147.777231 
L 235.598828 144.288 
L 236.057373 138.472615 
L 236.06174 138.472615 
L 236.096677 137.309538 
L 236.349969 134.983385 
L 236.36307 133.820308 
L 237.70377 117.537231 
L 238.494215 108.232615 
L 238.502949 108.232615 
L 238.95276 102.417231 
L 239.441875 96.601846 
L 239.459344 96.601846 
L 239.734471 93.112615 
L 242.149477 66.361846 
L 243.009796 55.894154 
L 243.066568 55.894154 
L 243.167011 54.731077 
L 243.228151 77.992615 
L 243.446506 294.324923 
L 243.498911 293.161846 
L 244.354862 275.715692 
L 246.621387 233.844923 
L 248.040694 210.583385 
L 248.049428 210.583385 
L 248.176074 208.257231 
L 249.294052 190.811077 
L 249.420698 189.648 
L 249.844306 182.669538 
L 250.324687 175.691077 
L 253.927544 128.004923 
L 253.931911 128.004923 
L 255.150332 112.884923 
L 255.185269 112.884923 
L 255.438561 109.395692 
L 257.00635 90.786462 
L 257.041286 90.786462 
L 257.395021 86.134154 
L 257.469262 86.134154 
L 257.521667 84.971077 
L 259.071988 67.524923 
L 259.556736 62.872615 
L 259.630976 61.709538 
L 259.775091 60.546462 
L 260.050218 57.057231 
L 260.338446 57.057231 
L 260.548067 294.324923 
L 260.552434 294.324923 
L 261.735918 269.900308 
L 261.888767 266.411077 
L 264.897698 215.235692 
L 264.937002 215.235692 
L 264.958838 214.072615 
L 266.819222 186.158769 
L 272.155818 115.211077 
L 274.26076 89.623385 
L 274.53152 87.297231 
L 274.645065 84.971077 
L 274.723672 84.971077 
L 274.784812 83.808 
L 276.108043 69.851077 
L 276.265258 67.524923 
L 276.330765 67.524923 
L 276.466145 65.198769 
L 276.501082 65.198769 
L 277.540452 54.731077 
L 277.728237 294.324923 
L 277.990263 289.672615 
L 278.828746 272.226462 
L 279.317861 262.921846 
L 279.444507 260.595692 
L 280.090838 248.964923 
L 280.099572 248.964923 
L 280.130142 247.801846 
L 281.208815 229.192615 
L 281.492677 224.540308 
L 281.597487 223.377231 
L 282.278754 211.746462 
L 282.597553 207.094154 
L 283.117238 198.952615 
L 283.14344 198.952615 
L 283.357428 195.463385 
L 283.396732 195.463385 
L 283.532112 193.137231 
L 284.55838 178.017231 
L 284.698128 175.691077 
L 285.060597 171.038769 
L 285.19161 168.712615 
L 287.641553 136.146462 
L 287.94725 132.657231 
L 289.532507 112.884923 
L 290.161369 105.906462 
L 290.288015 103.580308 
L 290.667953 100.091077 
L 290.67232 98.928 
L 290.908143 96.601846 
L 291.615613 88.460308 
L 291.694221 88.460308 
L 291.746626 87.297231 
L 292.004285 84.971077 
L 292.519603 79.155692 
L 292.545805 77.992615 
L 293.165934 72.177231 
L 293.279478 69.851077 
L 293.375554 69.851077 
L 293.510934 67.524923 
L 293.598276 67.524923 
L 293.733657 65.198769 
L 293.786062 65.198769 
L 293.820999 64.035692 
L 294.807963 53.568 
L 295.030685 294.324923 
L 295.978346 274.552615 
L 295.98708 274.552615 
L 298.100756 236.171077 
L 298.118224 236.171077 
L 298.279807 233.844923 
L 298.860631 223.377231 
L 298.895568 223.377231 
L 299.113923 219.888 
L 299.943672 207.094154 
L 299.948039 207.094154 
L 300.362914 200.115692 
L 300.721016 195.463385 
L 302.389248 171.038769 
L 302.393615 171.038769 
L 302.502792 168.712615 
L 304.389379 143.124923 
L 304.450519 143.124923 
L 304.454886 141.961846 
L 304.983305 136.146462 
L 305.219128 132.657231 
L 305.280268 132.657231 
L 305.44185 130.331077 
L 306.197359 121.026462 
L 306.463752 117.537231 
L 306.651537 115.211077 
L 307.24983 107.069538 
L 307.332804 107.069538 
L 307.393944 105.906462 
L 307.538058 104.743385 
L 307.607932 103.580308 
L 308.206224 96.601846 
L 308.214959 96.601846 
L 308.551225 91.949538 
L 308.638567 91.949538 
L 308.695339 90.786462 
L 312.040538 53.568 
L 312.254526 294.324923 
L 312.372437 291.998769 
L 313.634529 266.411077 
L 313.638896 266.411077 
L 314.324531 253.617231 
L 314.542886 248.964923 
L 316.438207 217.561846 
L 316.46441 217.561846 
L 316.582321 215.235692 
L 316.586688 215.235692 
L 316.752638 212.909538 
L 319.455873 172.201846 
L 319.486442 172.201846 
L 319.617455 169.875692 
L 319.652392 169.875692 
L 319.792139 167.549538 
L 319.875114 166.386462 
L 320.648091 155.918769 
L 320.683028 155.918769 
L 320.691762 154.755692 
L 322.172209 136.146462 
L 322.608919 130.331077 
L 322.674425 130.331077 
L 322.722463 129.168 
L 322.866577 128.004923 
L 322.932084 126.841846 
L 323.285819 122.189538 
L 323.346958 122.189538 
L 323.919048 114.048 
L 329.260011 54.731077 
L 329.478366 293.161846 
L 329.482733 291.998769 
L 330.561407 271.063385 
L 330.888939 264.084923 
L 331.063623 261.758769 
L 331.478498 253.617231 
L 332.146664 241.986462 
L 335.098823 194.300308 
L 335.159963 194.300308 
L 335.194899 193.137231 
L 335.793192 183.832615 
L 336.937372 167.549538 
L 337.007246 167.549538 
L 337.400285 161.734154 
L 340.824091 117.537231 
L 340.841559 117.537231 
L 342.49669 97.764923 
L 342.527259 97.764923 
L 342.6015 96.601846 
L 342.90283 93.112615 
L 342.915931 93.112615 
L 343.518591 86.134154 
L 343.658338 83.808 
L 343.675807 83.808 
L 344.003339 80.318769 
L 344.15182 79.155692 
L 344.226061 77.992615 
L 344.361441 76.829538 
L 345.02524 68.688 
L 345.52309 64.035692 
L 346.165053 57.057231 
L 346.191256 57.057231 
L 346.274231 55.894154 
L 346.400877 54.731077 
L 346.623599 294.324923 
L 347.291765 280.368 
L 347.296132 280.368 
L 347.409677 278.041846 
L 348.824617 251.291077 
L 348.837718 251.291077 
L 348.916326 248.964923 
L 349.942594 231.518769 
L 349.951329 231.518769 
L 350.562723 221.051077 
L 350.864052 216.398769 
L 350.890255 216.398769 
L 351.396839 208.257231 
L 351.405573 208.257231 
L 351.484181 205.931077 
L 351.702536 202.441846 
L 352.619626 189.648 
L 352.724437 187.321846 
L 352.947159 184.995692 
L 353.003931 183.832615 
L 354.196149 166.386462 
L 354.340264 165.223385 
L 354.410137 164.060308 
L 354.964759 155.918769 
L 355.100139 154.755692 
L 355.11324 153.592615 
L 355.423304 150.103385 
L 355.632925 146.614154 
L 355.711533 146.614154 
L 355.833812 144.288 
L 356.584953 134.983385 
L 357.257486 125.678769 
L 357.781538 119.863385 
L 357.991159 117.537231 
L 360.35376 89.623385 
L 360.358127 89.623385 
L 360.620153 86.134154 
L 361.126736 80.318769 
L 361.292686 79.155692 
L 361.375661 77.992615 
L 361.554712 75.666462 
L 361.607117 75.666462 
L 361.620219 74.503385 
L 362.187942 68.688 
L 362.834272 61.709538 
L 363.519907 54.731077 
L 363.624717 167.549538 
L 363.760097 294.324923 
L 363.886743 291.998769 
L 364.62915 276.878769 
L 365.092063 268.737231 
L 365.100797 267.574154 
L 366.996118 233.844923 
L 367.017954 233.844923 
L 367.358587 228.029538 
L 367.371689 228.029538 
L 367.38479 226.866462 
L 367.507069 225.703385 
L 368.149032 215.235692 
L 368.175235 215.235692 
L 368.852135 203.604923 
L 368.887072 203.604923 
L 371.109926 171.038769 
L 371.144863 171.038769 
L 371.258407 168.712615 
L 372.380752 153.592615 
L 372.42879 153.592615 
L 373.730186 136.146462 
L 373.791325 134.983385 
L 377.621271 88.460308 
L 377.795955 87.297231 
L 377.966272 84.971077 
L 378.302539 81.481846 
L 380.114885 60.546462 
L 380.206594 60.546462 
L 380.311405 59.383385 
L 380.743747 54.731077 
L 380.839824 217.561846 
L 381.023242 291.998769 
L 381.114951 289.672615 
L 381.132419 289.672615 
L 382.053877 271.063385 
L 382.433815 264.084923 
L 383.6304 241.986462 
L 383.870591 238.497231 
L 384.302933 230.355692 
L 384.486352 228.029538 
L 385.765912 207.094154 
L 388.980097 159.408 
L 394.286123 93.112615 
L 394.722833 88.460308 
L 396.050431 73.340308 
L 396.072267 73.340308 
L 396.421635 68.688 
L 396.788471 65.198769 
L 397.399865 58.220308 
L 397.749233 54.731077 
L 397.989423 294.324923 
L 398.487273 283.857231 
L 398.487273 283.857231 
" clip-path="url(#pad1073a2be)" style="fill: none; stroke: #1f77b4; stroke-width: 1.5; stroke-linecap: square"/>
   </g>
   <g id="patch_3">
    <path d="M 57.6 307.584 
L 57.6 41.472 
" style="fill: none; stroke: #000000; stroke-width: 0.8; stroke-linejoin: miter; stroke-linecap: square"/>
   </g>
   <g id="patch_4">
    <path d="M 414.72 307.584 
L 414.72 41.472 
" style="fill: none; stroke: #000000; stroke-width: 0.8; stroke-linejoin: miter; stroke-linecap: square"/>
   </g>
   <g id="patch_5">
    <path d="M 57.6 307.584 
L 414.72 307.584 
" style="fill: none; stroke: #000000; stroke-width: 0.8; stroke-linejoin: miter; stroke-linecap: square"/>
   </g>
   <g id="patch_6">
    <path d="M 57.6 41.472 
L 414.72 41.472 
" style="fill: none; stroke: #000000; stroke-width: 0.8; stroke-linejoin: miter; stroke-linecap: square"/>
   </g>
   <g id="text_16">
    <!-- 50Mbps bandwidth, 50ms delay, 1 BDP queue size -->
    <g transform="translate(109.529531 368.404837) scale(0.1 -0.1)">
     <defs>
      <path id="DejaVuSans-62" d="M 3116 1747 
Q 3116 2381 2855 2742 
Q 2594 3103 2138 3103 
Q 1681 3103 1420 2742 
Q 1159 2381 1159 1747 
Q 1159 1113 1420 752 
Q 1681 391 2138 391 
Q 2594 391 2855 752 
Q 3116 1113 3116 1747 
z
M 1159 2969 
Q 1341 3281 1617 3432 
Q 1894 3584 2278 3584 
Q 2916 3584 3314 3078 
Q 3713 2572 3713 1747 
Q 3713 922 3314 415 
Q 2916 -91 2278 -91 
Q 1894 -91 1617 61 
Q 1341 213 1159 525 
L 1159 0 
L 581 0 
L 581 4863 
L 1159 4863 
L 1159 2969 
z
" transform="scale(0.015625)"/>
      <path id="DejaVuSans-68" d="M 3513 2113 
L 3513 0 
L 2938 0 
L 2938 2094 
Q 2938 2591 2744 2837 
Q 2550 3084 2163 3084 
Q 1697 3084 1428 2787 
Q 1159 2491 1159 1978 
L 1159 0 
L 581 0 
L 581 4863 
L 1159 4863 
L 1159 2956 
Q 1366 3272 1645 3428 
Q 1925 3584 2291 3584 
Q 2894 3584 3203 3211 
Q 3513 2838 3513 2113 
z
" transform="scale(0.015625)"/>
      <path id="DejaVuSans-2c" d="M 750 794 
L 1409 794 
L 1409 256 
L 897 -744 
L 494 -744 
L 750 256 
L 750 794 
z
" transform="scale(0.015625)"/>
      <path id="DejaVuSans-6c" d="M 603 4863 
L 1178 4863 
L 1178 0 
L 603 0 
L 603 4863 
z
" transform="scale(0.015625)"/>
      <path id="DejaVuSans-79" d="M 2059 -325 
Q 1816 -950 1584 -1140 
Q 1353 -1331 966 -1331 
L 506 -1331 
L 506 -850 
L 844 -850 
Q 1081 -850 1212 -737 
Q 1344 -625 1503 -206 
L 1606 56 
L 191 3500 
L 800 3500 
L 1894 763 
L 2988 3500 
L 3597 3500 
L 2059 -325 
z
" transform="scale(0.015625)"/>
      <path id="DejaVuSans-42" d="M 1259 2228 
L 1259 519 
L 2272 519 
Q 2781 519 3026 730 
Q 3272 941 3272 1375 
Q 3272 1813 3026 2020 
Q 2781 2228 2272 2228 
L 1259 2228 
z
M 1259 4147 
L 1259 2741 
L 2194 2741 
Q 2656 2741 2882 2914 
Q 3109 3088 3109 3444 
Q 3109 3797 2882 3972 
Q 2656 4147 2194 4147 
L 1259 4147 
z
M 628 4666 
L 2241 4666 
Q 2963 4666 3353 4366 
Q 3744 4066 3744 3513 
Q 3744 3084 3544 2831 
Q 3344 2578 2956 2516 
Q 3422 2416 3680 2098 
Q 3938 1781 3938 1306 
Q 3938 681 3513 340 
Q 3088 0 2303 0 
L 628 0 
L 628 4666 
z
" transform="scale(0.015625)"/>
      <path id="DejaVuSans-44" d="M 1259 4147 
L 1259 519 
L 2022 519 
Q 2988 519 3436 956 
Q 3884 1394 3884 2338 
Q 3884 3275 3436 3711 
Q 2988 4147 2022 4147 
L 1259 4147 
z
M 628 4666 
L 1925 4666 
Q 3281 4666 3915 4102 
Q 4550 3538 4550 2338 
Q 4550 1131 3912 565 
Q 3275 0 1925 0 
L 628 0 
L 628 4666 
z
" transform="scale(0.015625)"/>
      <path id="DejaVuSans-50" d="M 1259 4147 
L 1259 2394 
L 2053 2394 
Q 2494 2394 2734 2622 
Q 2975 2850 2975 3272 
Q 2975 3691 2734 3919 
Q 2494 4147 2053 4147 
L 1259 4147 
z
M 628 4666 
L 2053 4666 
Q 2838 4666 3239 4311 
Q 3641 3956 3641 3272 
Q 3641 2581 3239 2228 
Q 2838 1875 2053 1875 
L 1259 1875 
L 1259 0 
L 628 0 
L 628 4666 
z
" transform="scale(0.015625)"/>
      <path id="DejaVuSans-71" d="M 947 1747 
Q 947 1113 1208 752 
Q 1469 391 1925 391 
Q 2381 391 2643 752 
Q 2906 1113 2906 1747 
Q 2906 2381 2643 2742 
Q 2381 3103 1925 3103 
Q 1469 3103 1208 2742 
Q 947 2381 947 1747 
z
M 2906 525 
Q 2725 213 2448 61 
Q 2172 -91 1784 -91 
Q 1150 -91 751 415 
Q 353 922 353 1747 
Q 353 2572 751 3078 
Q 1150 3584 1784 3584 
Q 2172 3584 2448 3432 
Q 2725 3281 2906 2969 
L 2906 3500 
L 3481 3500 
L 3481 -1331 
L 2906 -1331 
L 2906 525 
z
" transform="scale(0.015625)"/>
      <path id="DejaVuSans-75" d="M 544 1381 
L 544 3500 
L 1119 3500 
L 1119 1403 
Q 1119 906 1312 657 
Q 1506 409 1894 409 
Q 2359 409 2629 706 
Q 2900 1003 2900 1516 
L 2900 3500 
L 3475 3500 
L 3475 0 
L 2900 0 
L 2900 538 
Q 2691 219 2414 64 
Q 2138 -91 1772 -91 
Q 1169 -91 856 284 
Q 544 659 544 1381 
z
M 1991 3584 
L 1991 3584 
z
" transform="scale(0.015625)"/>
      <path id="DejaVuSans-7a" d="M 353 3500 
L 3084 3500 
L 3084 2975 
L 922 459 
L 3084 459 
L 3084 0 
L 275 0 
L 275 525 
L 2438 3041 
L 353 3041 
L 353 3500 
z
" transform="scale(0.015625)"/>
     </defs>
     <use xlink:href="#DejaVuSans-35"/>
     <use xlink:href="#DejaVuSans-30" x="63.623047"/>
     <use xlink:href="#DejaVuSans-4d" x="127.246094"/>
     <use xlink:href="#DejaVuSans-62" x="213.525391"/>
     <use xlink:href="#DejaVuSans-70" x="277.001953"/>
     <use xlink:href="#DejaVuSans-73" x="340.478516"/>
     <use xlink:href="#DejaVuSans-20" x="392.578125"/>
     <use xlink:href="#DejaVuSans-62" x="424.365234"/>
     <use xlink:href="#DejaVuSans-61" x="487.841797"/>
     <use xlink:href="#DejaVuSans-6e" x="549.121094"/>
     <use xlink:href="#DejaVuSans-64" x="612.5"/>
     <use xlink:href="#DejaVuSans-77" x="675.976562"/>
     <use xlink:href="#DejaVuSans-69" x="757.763672"/>
     <use xlink:href="#DejaVuSans-64" x="785.546875"/>
     <use xlink:href="#DejaVuSans-74" x="849.023438"/>
     <use xlink:href="#DejaVuSans-68" x="888.232422"/>
     <use xlink:href="#DejaVuSans-2c" x="951.611328"/>
     <use xlink:href="#DejaVuSans-20" x="983.398438"/>
     <use xlink:href="#DejaVuSans-35" x="1015.185547"/>
     <use xlink:href="#DejaVuSans-30" x="1078.808594"/>
     <use xlink:href="#DejaVuSans-6d" x="1142.431641"/>
     <use xlink:href="#DejaVuSans-73" x="1239.84375"/>
     <use xlink:href="#DejaVuSans-20" x="1291.943359"/>
     <use xlink:href="#DejaVuSans-64" x="1323.730469"/>
     <use xlink:href="#DejaVuSans-65" x="1387.207031"/>
     <use xlink:href="#DejaVuSans-6c" x="1448.730469"/>
     <use xlink:href="#DejaVuSans-61" x="1476.513672"/>
     <use xlink:href="#DejaVuSans-79" x="1537.792969"/>
     <use xlink:href="#DejaVuSans-2c" x="1596.972656"/>
     <use xlink:href="#DejaVuSans-20" x="1628.759766"/>
     <use xlink:href="#DejaVuSans-31" x="1660.546875"/>
     <use xlink:href="#DejaVuSans-20" x="1724.169922"/>
     <use xlink:href="#DejaVuSans-42" x="1755.957031"/>
     <use xlink:href="#DejaVuSans-44" x="1824.560547"/>
     <use xlink:href="#DejaVuSans-50" x="1901.5625"/>
     <use xlink:href="#DejaVuSans-20" x="1961.865234"/>
     <use xlink:href="#DejaVuSans-71" x="1993.652344"/>
     <use xlink:href="#DejaVuSans-75" x="2057.128906"/>
     <use xlink:href="#DejaVuSans-65" x="2120.507812"/>
     <use xlink:href="#DejaVuSans-75" x="2182.03125"/>
     <use xlink:href="#DejaVuSans-65" x="2245.410156"/>
     <use xlink:href="#DejaVuSans-20" x="2306.933594"/>
     <use xlink:href="#DejaVuSans-73" x="2338.720703"/>
     <use xlink:href="#DejaVuSans-69" x="2390.820312"/>
     <use xlink:href="#DejaVuSans-7a" x="2418.603516"/>
     <use xlink:href="#DejaVuSans-65" x="2471.09375"/>
    </g>
   </g>
   <g id="text_17">
    <!-- Congestion window (Reno) -->
    <g transform="translate(156.053438 35.472) scale(0.12 -0.12)">
     <defs>
      <path id="DejaVuSans-52" d="M 2841 2188 
Q 3044 2119 3236 1894 
Q 3428 1669 3622 1275 
L 4263 0 
L 3584 0 
L 2988 1197 
Q 2756 1666 2539 1819 
Q 2322 1972 1947 1972 
L 1259 1972 
L 1259 0 
L 628 0 
L 628 4666 
L 2053 4666 
Q 2853 4666 3247 4331 
Q 3641 3997 3641 3322 
Q 3641 2881 3436 2590 
Q 3231 2300 2841 2188 
z
M 1259 4147 
L 1259 2491 
L 2053 2491 
Q 2509 2491 2742 2702 
Q 2975 2913 2975 3322 
Q 2975 3731 2742 3939 
Q 2509 4147 2053 4147 
L 1259 4147 
z
" transform="scale(0.015625)"/>
     </defs>
     <use xlink:href="#DejaVuSans-43"/>
     <use xlink:href="#DejaVuSans-6f" x="69.824219"/>
     <use xlink:href="#DejaVuSans-6e" x="131.005859"/>
     <use xlink:href="#DejaVuSans-67" x="194.384766"/>
     <use xlink:href="#DejaVuSans-65" x="257.861328"/>
     <use xlink:href="#DejaVuSans-73" x="319.384766"/>
     <use xlink:href="#DejaVuSans-74" x="371.484375"/>
     <use xlink:href="#DejaVuSans-69" x="410.693359"/>
     <use xlink:href="#DejaVuSans-6f" x="438.476562"/>
     <use xlink:href="#DejaVuSans-6e" x="499.658203"/>
     <use xlink:href="#DejaVuSans-20" x="563.037109"/>
     <use xlink:href="#DejaVuSans-77" x="594.824219"/>
     <use xlink:href="#DejaVuSans-69" x="676.611328"/>
     <use xlink:href="#DejaVuSans-6e" x="704.394531"/>
     <use xlink:href="#DejaVuSans-64" x="767.773438"/>
     <use xlink:href="#DejaVuSans-6f" x="831.25"/>
     <use xlink:href="#DejaVuSans-77" x="892.431641"/>
     <use xlink:href="#DejaVuSans-20" x="974.21875"/>
     <use xlink:href="#DejaVuSans-28" x="1006.005859"/>
     <use xlink:href="#DejaVuSans-52" x="1045.019531"/>
     <use xlink:href="#DejaVuSans-65" x="1110.001953"/>
     <use xlink:href="#DejaVuSans-6e" x="1171.525391"/>
     <use xlink:href="#DejaVuSans-6f" x="1234.904297"/>
     <use xlink:href="#DejaVuSans-29" x="1296.085938"/>
    </g>
   </g>
   <g id="legend_1">
    <g id="patch_7">
     <path d="M 349.3575 302.584 
L 407.72 302.584 
Q 409.72 302.584 409.72 300.584 
L 409.72 286.905875 
Q 409.72 284.905875 407.72 284.905875 
L 349.3575 284.905875 
Q 347.3575 284.905875 347.3575 286.905875 
L 347.3575 300.584 
Q 347.3575 302.584 349.3575 302.584 
z
" style="fill: #ffffff; opacity: 0.8; stroke: #cccccc; stroke-linejoin: miter"/>
    </g>
    <g id="line2d_15">
     <path d="M 351.3575 293.004312 
L 361.3575 293.004312 
L 371.3575 293.004312 
" style="fill: none; stroke: #1f77b4; stroke-width: 1.5; stroke-linecap: square"/>
    </g>
    <g id="text_18">
     <!-- cwnd -->
     <g transform="translate(379.3575 296.504312) scale(0.1 -0.1)">
      <defs>
       <path id="DejaVuSans-63" d="M 3122 3366 
L 3122 2828 
Q 2878 2963 2633 3030 
Q 2388 3097 2138 3097 
Q 1578 3097 1268 2742 
Q 959 2388 959 1747 
Q 959 1106 1268 751 
Q 1578 397 2138 397 
Q 2388 397 2633 464 
Q 2878 531 3122 666 
L 3122 134 
Q 2881 22 2623 -34 
Q 2366 -91 2075 -91 
Q 1284 -91 818 406 
Q 353 903 353 1747 
Q 353 2603 823 3093 
Q 1294 3584 2113 3584 
Q 2378 3584 2631 3529 
Q 2884 3475 3122 3366 
z
" transform="scale(0.015625)"/>
      </defs>
      <use xlink:href="#DejaVuSans-63"/>
      <use xlink:href="#DejaVuSans-77" x="54.980469"/>
      <use xlink:href="#DejaVuSans-6e" x="136.767578"/>
      <use xlink:href="#DejaVuSans-64" x="200.146484"/>
     </g>
    </g>
   </g>
  </g>
 </g>
 <defs>
  <clipPath id="pad1073a2be">
   <rect x="57.6" y="41.472" width="357.12" height="266.112"/>
  </clipPath>
 </defs>
</svg>
